<svg xmlns="http://www.w3.org/2000/svg" xmlns:xlink="http://www.w3.org/1999/xlink" width="850" height="282.23"><rect width="850" height="282.23" rx="0" ry="0" class="a"/><svg height="282.23" viewBox="0 0 85 28.223" width="850" xmlns="http://www.w3.org/2000/svg" xmlns:xlink="http://www.w3.org/1999/xlink"><style>@keyframes n{0%{transform:translateX(0)}3.32%{transform:translateX(-85px)}4.75%{transform:translateX(-170px)}13.1%{transform:translateX(-255px)}13.13%{transform:translateX(-340px)}15.05%{transform:translateX(-425px)}15.09%{transform:translateX(-510px)}15.36%{transform:translateX(-595px)}15.42%{transform:translateX(-680px)}15.91%{transform:translateX(-765px)}15.98%{transform:translateX(-850px)}17.18%{transform:translateX(-935px)}17.25%{transform:translateX(-1020px)}17.72%{transform:translateX(-1105px)}17.76%{transform:translateX(-1190px)}18.34%{transform:translateX(-1275px)}18.37%{transform:translateX(-1360px)}18.68%{transform:translateX(-1445px)}18.75%{transform:translateX(-1530px)}18.94%{transform:translateX(-1615px)}18.98%{transform:translateX(-1700px)}20.41%{transform:translateX(-1785px)}20.47%{transform:translateX(-1870px)}21.39%{transform:translateX(-1955px)}21.42%{transform:translateX(-2040px)}22%{transform:translateX(-2125px)}22.03%{transform:translateX(-2210px)}22.28%{transform:translateX(-2295px)}22.31%{transform:translateX(-2380px)}22.84%{transform:translateX(-2465px)}22.88%{transform:translateX(-2550px)}23.94%{transform:translateX(-2635px)}23.97%{transform:translateX(-2720px)}24.96%{transform:translateX(-2805px)}25.01%{transform:translateX(-2890px)}25.2%{transform:translateX(-2975px)}25.37%{transform:translateX(-3060px)}25.43%{transform:translateX(-3145px)}28.38%{transform:translateX(-3230px)}31.89%{transform:translateX(-3315px)}32.36%{transform:translateX(-3400px)}35.8%{transform:translateX(-3485px)}41.7%{transform:translateX(-3570px)}43.21%{transform:translateX(-3655px)}45.58%{transform:translateX(-3740px)}48.36%{transform:translateX(-3825px)}49.3%{transform:translateX(-3910px)}52.4%{transform:translateX(-3995px)}57.57%{transform:translateX(-4080px)}63.67%{transform:translateX(-4165px)}67.59%{transform:translateX(-4250px)}68.02%{transform:translateX(-4335px)}68.62%{transform:translateX(-4420px)}69.1%{transform:translateX(-4505px)}73.19%{transform:translateX(-4590px)}77.55%{transform:translateX(-4675px)}81.56%{transform:translateX(-4760px)}81.62%{transform:translateX(-4845px)}85.06%{transform:translateX(-4930px)}86.97%{transform:translateX(-5015px)}87.03%{transform:translateX(-5100px)}89.02%{transform:translateX(-5185px)}89.05%{transform:translateX(-5270px)}92.5%{transform:translateX(-5355px)}92.56%{transform:translateX(-5440px)}95.01%{transform:translateX(-5525px)}95.05%{transform:translateX(-5610px)}to{transform:translateX(-5695px)}}.a{fill:#282d35}.c,.e,.f{fill:#dbab79;white-space:pre}.e,.f{fill:#b9c0cb}.f{fill:#e88388}.g{fill:#fff;font-weight:700}.g,.h,.i,.j,.k{white-space:pre}.h{fill:#a8cc8c;font-weight:700}.i,.j,.k{fill:#71bef2}.j,.k{fill:#a8cc8c}.k{fill:#66c2cd;font-weight:700}</style><g font-family="Monaco,Consolas,Menlo,'Bitstream Vera Sans Mono','Powerline Symbols',monospace" font-size="1.67"><defs><symbol id="1"><text y="1.67" class="c">java</text><text x="5.01" y="1.67" style="white-space:pre" fill="#6f7783">-jar</text><text x="10.02" y="1.67" class="e">spring-shell-samples/target/spring-shell-samples-2.1.13-SNAPSHOT.jar</text></symbol><symbol id="2"><text y="1.67" class="c">my-shell:&gt;</text></symbol><symbol id="3"><text y="1.67" class="c">my-shell:&gt;</text><text x="10.02" y="1.67" class="f">f</text></symbol><symbol id="4"><text y="1.67" class="c">my-shell:&gt;</text><text x="10.02" y="1.67" class="f">fl</text></symbol><symbol id="5"><text y="1.67" class="c">my-shell:&gt;</text><text x="10.02" y="1.67" class="f">flo</text></symbol><symbol id="6"><text y="1.67" class="c">my-shell:&gt;</text><text x="10.02" y="1.67" class="f">flow</text></symbol><symbol id="7"><text y="1.67" class="c">my-shell:&gt;</text><text x="10.02" y="1.67" class="f">flow</text><text x="15.03" y="1.67" class="f">s</text></symbol><symbol id="8"><text y="1.67" class="c">my-shell:&gt;</text><text x="10.02" y="1.67" class="f">flow</text><text x="15.03" y="1.67" class="f">sh</text></symbol><symbol id="9"><text y="1.67" class="c">my-shell:&gt;</text><text x="10.02" y="1.67" class="f">flow</text><text x="15.03" y="1.67" class="f">sho</text></symbol><symbol id="10"><text y="1.67" class="c">my-shell:&gt;</text><text x="10.02" y="1.67" class="f">flow</text><text x="15.03" y="1.67" class="f">show</text></symbol><symbol id="11"><text y="1.67" class="c">my-shell:&gt;</text><text x="10.02" y="1.67" class="f">flow</text><text x="15.03" y="1.67" class="f">showc</text></symbol><symbol id="12"><text y="1.67" class="c">my-shell:&gt;</text><text x="10.02" y="1.67" class="f">flow</text><text x="15.03" y="1.67" class="f">showca</text></symbol><symbol id="13"><text y="1.67" class="c">my-shell:&gt;</text><text x="10.02" y="1.67" class="f">flow</text><text x="15.03" y="1.67" class="f">showcas</text></symbol><symbol id="14"><text y="1.67" class="c">my-shell:&gt;</text><text x="10.02" y="1.67" class="f">flow</text><text x="15.03" y="1.67" class="f">showcase</text></symbol><symbol id="15"><text y="1.67" class="c">my-shell:&gt;</text><text x="10.02" y="1.67" class="g">flow</text><text x="15.03" y="1.67" class="g">showcase1</text></symbol><symbol id="16"><text y="1.67" class="h">?</text><text x="2.004" y="1.67" class="g">Field1</text><text x="9.018" y="1.67" class="i">[Default</text><text x="18.036" y="1.67" class="i">defaultField1Value]</text></symbol><symbol id="17"><text y="1.67" class="h">?</text><text x="2.004" y="1.67" class="g">Field1</text><text x="9.018" y="1.67" class="i">defaultField1Value</text></symbol><symbol id="18"><text y="1.67" class="h">?</text><text x="2.004" y="1.67" class="g">Field2</text><text x="9.018" y="1.67" class="i">hi</text></symbol><symbol id="19"><text y="1.67" class="h">?</text><text x="2.004" y="1.67" class="g">Number1</text><text x="10.02" y="1.67" class="e">5</text></symbol><symbol id="20"><text y="1.67" class="h">?</text><text x="2.004" y="1.67" class="g">Number1</text><text x="10.02" y="1.67" class="e">5.</text></symbol><symbol id="21"><text y="1.67" class="f">✖</text><text x="2.004" y="1.67" class="f">Sorry,</text><text x="9.018" y="1.67" class="f">your</text><text x="14.028" y="1.67" class="f">input</text><text x="20.04" y="1.67" class="f">is</text><text x="23.046" y="1.67" class="f">invalid:</text><text x="32.064" y="1.67" class="f">&apos;5.&apos;,</text><text x="38.076" y="1.67" class="f">try</text><text x="42.084" y="1.67" class="f">again</text></symbol><symbol id="22"><text y="1.67" class="h">?</text><text x="2.004" y="1.67" class="g">Number1</text><text x="10.02" y="1.67" class="i">5</text></symbol><symbol id="23"><text y="1.67" class="h">?</text><text x="2.004" y="1.67" class="g">Number2</text><text x="10.02" y="1.67" class="i">20.5</text></symbol><symbol id="24"><text y="1.67" class="h">?</text><text x="2.004" y="1.67" class="g">Confirmation1</text><text x="16.032" y="1.67" class="i">true</text></symbol><symbol id="25"><text y="1.67" class="j">ℹ</text><text x="2.004" y="1.67" class="j">Path</text><text x="7.014" y="1.67" class="j">ok</text></symbol><symbol id="26"><text y="1.67" class="h">?</text><text x="2.004" y="1.67" class="g">Path1</text><text x="8.016" y="1.67" class="i">path</text></symbol><symbol id="27"><text y="1.67" class="h">?</text><text x="2.004" y="1.67" class="g">Single1</text><text x="10.02" y="1.67" class="e">[Use</text><text x="15.03" y="1.67" class="e">arrows</text><text x="22.044" y="1.67" class="e">to</text><text x="25.05" y="1.67" class="e">move],</text><text x="32.064" y="1.67" class="e">type</text><text x="37.074" y="1.67" class="e">to</text><text x="40.08" y="1.67" class="e">filter</text></symbol><symbol id="28"><text x="2.004" y="1.67" class="e">key1</text></symbol><symbol id="29"><text y="1.67" class="k">❯</text><text x="2.004" y="1.67" class="k">key2</text></symbol><symbol id="30"><text y="1.67" class="h">?</text><text x="2.004" y="1.67" class="g">Single1</text><text x="10.02" y="1.67" class="i">value2</text></symbol><symbol id="31"><text y="1.67" class="h">?</text><text x="2.004" y="1.67" class="g">Multi1</text><text x="9.018" y="1.67" class="e">[Use</text><text x="14.028" y="1.67" class="e">arrows</text><text x="21.042" y="1.67" class="e">to</text><text x="24.048" y="1.67" class="e">move],</text><text x="31.062" y="1.67" class="e">type</text><text x="36.072" y="1.67" class="e">to</text><text x="39.078" y="1.67" class="e">filter</text></symbol><symbol id="32"><text x="2.004" y="1.67" class="g">☐</text><text x="5.01" y="1.67" class="e">key2</text></symbol><symbol id="33"><text x="2.004" y="1.67" class="g">☐</text><text x="5.01" y="1.67" class="e">key3</text></symbol><symbol id="34"><text y="1.67" class="k">❯</text><text x="2.004" y="1.67" class="j">☒</text><text x="5.01" y="1.67" class="e">key1</text></symbol><symbol id="35"><text x="2.004" y="1.67" class="j">☒</text><text x="5.01" y="1.67" class="e">key1</text></symbol><symbol id="36"><text y="1.67" class="k">❯</text><text x="2.004" y="1.67" class="g">☐</text><text x="5.01" y="1.67" class="e">key2</text></symbol><symbol id="37"><text y="1.67" class="k">❯</text><text x="2.004" y="1.67" class="j">☒</text><text x="5.01" y="1.67" class="e">key2</text></symbol><symbol id="38"><text y="1.67" class="h">?</text><text x="2.004" y="1.67" class="g">Multi1</text><text x="9.018" y="1.67" class="i">value1</text></symbol><symbol id="a"><path fill="transparent" d="M0 0h85v13H0z"/></symbol><symbol id="b"><path fill="#6f7683" d="M0 0h1.102v2.171H0z"/></symbol></defs><path class="a" d="M0 0h85v28.223H0z"/><g style="animation-duration:33.2701370716095s;animation-iteration-count:infinite;animation-name:n;animation-timing-function:steps(1,end)"><svg width="5780"><svg><use xlink:href="#a"/><use xlink:href="#b" x="-.004"/></svg><svg x="85"><use xlink:href="#a"/><use xlink:href="#b" x="77.996"/><use xlink:href="#1"/></svg><svg x="170"><use xlink:href="#a"/><use xlink:href="#b" x="-.004" y="2.146"/><use xlink:href="#1"/></svg><svg x="255"><use xlink:href="#a"/><use xlink:href="#b" x="9.996" y="2.146"/><use xlink:href="#1"/><use xlink:href="#2" y="2.171"/></svg><svg x="340"><use xlink:href="#a"/><use xlink:href="#b" x="9.996" y="2.146"/><use xlink:href="#1"/><use xlink:href="#2" y="2.171"/></svg><svg x="425"><use xlink:href="#a"/><use xlink:href="#b" x="10.996" y="2.146"/><use xlink:href="#1"/><use xlink:href="#3" y="2.171"/></svg><svg x="510"><use xlink:href="#a"/><use xlink:href="#b" x="10.996" y="2.146"/><use xlink:href="#1"/><use xlink:href="#3" y="2.171"/></svg><svg x="595"><use xlink:href="#a"/><use xlink:href="#b" x="11.996" y="2.146"/><use xlink:href="#1"/><use xlink:href="#4" y="2.171"/></svg><svg x="680"><use xlink:href="#a"/><use xlink:href="#b" x="11.996" y="2.146"/><use xlink:href="#1"/><use xlink:href="#4" y="2.171"/></svg><svg x="765"><use xlink:href="#a"/><use xlink:href="#b" x="12.996" y="2.146"/><use xlink:href="#1"/><use xlink:href="#5" y="2.171"/></svg><svg x="850"><use xlink:href="#a"/><use xlink:href="#b" x="12.996" y="2.146"/><use xlink:href="#1"/><use xlink:href="#5" y="2.171"/></svg><svg x="935"><use xlink:href="#a"/><use xlink:href="#b" x="13.996" y="2.146"/><use xlink:href="#1"/><use xlink:href="#6" y="2.171"/></svg><svg x="1020"><use xlink:href="#a"/><use xlink:href="#b" x="13.996" y="2.146"/><use xlink:href="#1"/><use xlink:href="#6" y="2.171"/></svg><svg x="1105"><use xlink:href="#a"/><use xlink:href="#b" x="14.996" y="2.146"/><use xlink:href="#1"/><use xlink:href="#6" y="2.171"/></svg><svg x="1190"><use xlink:href="#a"/><use xlink:href="#b" x="14.996" y="2.146"/><use xlink:href="#1"/><use xlink:href="#6" y="2.171"/></svg><svg x="1275"><use xlink:href="#a"/><use xlink:href="#b" x="15.996" y="2.146"/><use xlink:href="#1"/><use xlink:href="#7" y="2.171"/></svg><svg x="1360"><use xlink:href="#a"/><use xlink:href="#b" x="15.996" y="2.146"/><use xlink:href="#1"/><use xlink:href="#7" y="2.171"/></svg><svg x="1445"><use xlink:href="#a"/><use xlink:href="#b" x="16.996" y="2.146"/><use xlink:href="#1"/><use xlink:href="#8" y="2.171"/></svg><svg x="1530"><use xlink:href="#a"/><use xlink:href="#b" x="16.996" y="2.146"/><use xlink:href="#1"/><use xlink:href="#8" y="2.171"/></svg><svg x="1615"><use xlink:href="#a"/><use xlink:href="#b" x="17.996" y="2.146"/><use xlink:href="#1"/><use xlink:href="#9" y="2.171"/></svg><svg x="1700"><use xlink:href="#a"/><use xlink:href="#b" x="17.996" y="2.146"/><use xlink:href="#1"/><use xlink:href="#9" y="2.171"/></svg><svg x="1785"><use xlink:href="#a"/><use xlink:href="#b" x="18.996" y="2.146"/><use xlink:href="#1"/><use xlink:href="#10" y="2.171"/></svg><svg x="1870"><use xlink:href="#a"/><use xlink:href="#b" x="18.996" y="2.146"/><use xlink:href="#1"/><use xlink:href="#10" y="2.171"/></svg><svg x="1955"><use xlink:href="#a"/><use xlink:href="#b" x="19.996" y="2.146"/><use xlink:href="#1"/><use xlink:href="#11" y="2.171"/></svg><svg x="2040"><use xlink:href="#a"/><use xlink:href="#b" x="19.996" y="2.146"/><use xlink:href="#1"/><use xlink:href="#11" y="2.171"/></svg><svg x="2125"><use xlink:href="#a"/><use xlink:href="#b" x="20.996" y="2.146"/><use xlink:href="#1"/><use xlink:href="#12" y="2.171"/></svg><svg x="2210"><use xlink:href="#a"/><use xlink:href="#b" x="20.996" y="2.146"/><use xlink:href="#1"/><use xlink:href="#12" y="2.171"/></svg><svg x="2295"><use xlink:href="#a"/><use xlink:href="#b" x="21.996" y="2.146"/><use xlink:href="#1"/><use xlink:href="#13" y="2.171"/></svg><svg x="2380"><use xlink:href="#a"/><use xlink:href="#b" x="21.996" y="2.146"/><use xlink:href="#1"/><use xlink:href="#13" y="2.171"/></svg><svg x="2465"><use xlink:href="#a"/><use xlink:href="#b" x="22.996" y="2.146"/><use xlink:href="#1"/><use xlink:href="#14" y="2.171"/></svg><svg x="2550"><use xlink:href="#a"/><use xlink:href="#b" x="22.996" y="2.146"/><use xlink:href="#1"/><use xlink:href="#14" y="2.171"/></svg><svg x="2635"><use xlink:href="#a"/><use xlink:href="#b" x="9.996" y="2.146"/><use xlink:href="#1"/><use xlink:href="#14" y="2.171"/></svg><svg x="2720"><use xlink:href="#a"/><use xlink:href="#b" x="23.996" y="2.146"/><use xlink:href="#1"/><use xlink:href="#15" y="2.171"/></svg><svg x="2805"><use xlink:href="#a"/><use xlink:href="#b" x="-.004" y="2.146"/><use xlink:href="#1"/><use xlink:href="#15" y="2.171"/></svg><svg x="2890"><use xlink:href="#a"/><use xlink:href="#b" x="-.004" y="4.317"/><use xlink:href="#1"/><use xlink:href="#15" y="2.171"/></svg><svg x="2975"><use xlink:href="#a"/><use xlink:href="#1"/><use xlink:href="#15" y="2.171"/></svg><svg x="3060"><use xlink:href="#a"/><use xlink:href="#1"/><use xlink:href="#15" y="2.171"/><use xlink:href="#16" y="4.342"/></svg><svg x="3145"><use xlink:href="#a"/><use xlink:href="#1"/><use xlink:href="#15" y="2.171"/><use xlink:href="#16" y="4.342"/></svg><svg x="3230"><use xlink:href="#a"/><use xlink:href="#1"/><use xlink:href="#15" y="2.171"/><use xlink:href="#17" y="4.342"/><text y="8.183" class="h">?</text><text x="2.004" y="8.183" class="g">Field2</text></svg><svg x="3315"><use xlink:href="#a"/><use xlink:href="#1"/><use xlink:href="#15" y="2.171"/><use xlink:href="#17" y="4.342"/><text y="8.183" class="h">?</text><text x="2.004" y="8.183" class="g">Field2</text><text x="9.018" y="8.183" class="e">h</text></svg><svg x="3400"><use xlink:href="#a"/><use xlink:href="#1"/><use xlink:href="#15" y="2.171"/><use xlink:href="#17" y="4.342"/><text y="8.183" class="h">?</text><text x="2.004" y="8.183" class="g">Field2</text><text x="9.018" y="8.183" class="e">hi</text></svg><svg x="3485"><use xlink:href="#a"/><use xlink:href="#1"/><use xlink:href="#15" y="2.171"/><use xlink:href="#17" y="4.342"/><use xlink:href="#18" y="6.513"/><text y="10.354" class="h">?</text><text x="2.004" y="10.354" class="g">Number1</text><text x="10.02" y="10.354" class="i">[Number</text><text x="18.036" y="10.354" class="i">Type:</text><text x="24.048" y="10.354" class="i">Integer]</text></svg><svg x="3570"><use xlink:href="#a"/><use xlink:href="#1"/><use xlink:href="#15" y="2.171"/><use xlink:href="#17" y="4.342"/><use xlink:href="#18" y="6.513"/><use xlink:href="#19" y="8.684"/></svg><svg x="3655"><use xlink:href="#a"/><use xlink:href="#1"/><use xlink:href="#15" y="2.171"/><use xlink:href="#17" y="4.342"/><use xlink:href="#18" y="6.513"/><use xlink:href="#20" y="8.684"/><use xlink:href="#21" y="10.855"/></svg><svg x="3740"><use xlink:href="#a"/><use xlink:href="#1"/><use xlink:href="#15" y="2.171"/><use xlink:href="#17" y="4.342"/><use xlink:href="#18" y="6.513"/><text y="10.354" class="h">?</text><text x="2.004" y="10.354" class="g">Number1</text><text x="10.02" y="10.354" class="e">5.5</text><text y="12.525" class="f">✖</text><text x="2.004" y="12.525" class="f">Sorry,</text><text x="9.018" y="12.525" class="f">your</text><text x="14.028" y="12.525" class="f">input</text><text x="20.04" y="12.525" class="f">is</text><text x="23.046" y="12.525" class="f">invalid:</text><text x="32.064" y="12.525" class="f">&apos;5.5&apos;,</text><text x="39.078" y="12.525" class="f">try</text><text x="43.086" y="12.525" class="f">again</text></svg><svg x="3825"><use xlink:href="#a"/><use xlink:href="#1"/><use xlink:href="#15" y="2.171"/><use xlink:href="#17" y="4.342"/><use xlink:href="#18" y="6.513"/><use xlink:href="#20" y="8.684"/><use xlink:href="#21" y="10.855"/></svg><svg x="3910"><use xlink:href="#a"/><use xlink:href="#1"/><use xlink:href="#15" y="2.171"/><use xlink:href="#17" y="4.342"/><use xlink:href="#18" y="6.513"/><use xlink:href="#19" y="8.684"/></svg><svg x="3995"><use xlink:href="#a"/><use xlink:href="#1"/><use xlink:href="#15" y="2.171"/><use xlink:href="#17" y="4.342"/><use xlink:href="#18" y="6.513"/><use xlink:href="#22" y="8.684"/><text y="12.525" class="h">?</text><text x="2.004" y="12.525" class="g">Number2</text><text x="10.02" y="12.525" class="i">[Number</text><text x="18.036" y="12.525" class="i">Type:</text><text x="24.048" y="12.525" class="i">Double][Default</text><text x="40.08" y="12.525" class="e">20.5</text><text x="44.088" y="12.525" class="i">]</text></svg><svg x="4080"><use xlink:href="#a"/><use xlink:href="#1"/><use xlink:href="#15" y="2.171"/><use xlink:href="#17" y="4.342"/><use xlink:href="#18" y="6.513"/><use xlink:href="#22" y="8.684"/><use xlink:href="#23" y="10.855"/><text y="14.696" class="h">?</text><text x="2.004" y="14.696" class="g">Confirmation1</text><text x="16.032" y="14.696" class="e">(Y/n)</text></svg><svg x="4165"><use xlink:href="#a"/><use xlink:href="#1"/><use xlink:href="#15" y="2.171"/><use xlink:href="#17" y="4.342"/><use xlink:href="#18" y="6.513"/><use xlink:href="#22" y="8.684"/><use xlink:href="#23" y="10.855"/><use xlink:href="#24" y="13.026"/><text y="16.867" class="h">?</text><text x="2.004" y="16.867" class="g">Path1</text></svg><svg x="4250"><use xlink:href="#a"/><use xlink:href="#1"/><use xlink:href="#15" y="2.171"/><use xlink:href="#17" y="4.342"/><use xlink:href="#18" y="6.513"/><use xlink:href="#22" y="8.684"/><use xlink:href="#23" y="10.855"/><use xlink:href="#24" y="13.026"/><text y="16.867" class="h">?</text><text x="2.004" y="16.867" class="g">Path1</text><text x="8.016" y="16.867" class="e">p</text><use xlink:href="#25" y="17.368"/></svg><svg x="4335"><use xlink:href="#a"/><use xlink:href="#1"/><use xlink:href="#15" y="2.171"/><use xlink:href="#17" y="4.342"/><use xlink:href="#18" y="6.513"/><use xlink:href="#22" y="8.684"/><use xlink:href="#23" y="10.855"/><use xlink:href="#24" y="13.026"/><text y="16.867" class="h">?</text><text x="2.004" y="16.867" class="g">Path1</text><text x="8.016" y="16.867" class="e">pa</text><use xlink:href="#25" y="17.368"/></svg><svg x="4420"><use xlink:href="#a"/><use xlink:href="#1"/><use xlink:href="#15" y="2.171"/><use xlink:href="#17" y="4.342"/><use xlink:href="#18" y="6.513"/><use xlink:href="#22" y="8.684"/><use xlink:href="#23" y="10.855"/><use xlink:href="#24" y="13.026"/><text y="16.867" class="h">?</text><text x="2.004" y="16.867" class="g">Path1</text><text x="8.016" y="16.867" class="e">pat</text><use xlink:href="#25" y="17.368"/></svg><svg x="4505"><use xlink:href="#a"/><use xlink:href="#1"/><use xlink:href="#15" y="2.171"/><use xlink:href="#17" y="4.342"/><use xlink:href="#18" y="6.513"/><use xlink:href="#22" y="8.684"/><use xlink:href="#23" y="10.855"/><use xlink:href="#24" y="13.026"/><text y="16.867" class="h">?</text><text x="2.004" y="16.867" class="g">Path1</text><text x="8.016" y="16.867" class="e">path</text><use xlink:href="#25" y="17.368"/></svg><svg x="4590"><use xlink:href="#a"/><use xlink:href="#1"/><use xlink:href="#15" y="2.171"/><use xlink:href="#17" y="4.342"/><use xlink:href="#18" y="6.513"/><use xlink:href="#22" y="8.684"/><use xlink:href="#23" y="10.855"/><use xlink:href="#24" y="13.026"/><use xlink:href="#26" y="15.197"/><use xlink:href="#27" y="17.368"/><text y="21.209" class="k">❯</text><text x="2.004" y="21.209" class="k">key1</text><text x="2.004" y="23.38" class="e">key2</text></svg><svg x="4675"><use xlink:href="#a"/><use xlink:href="#1"/><use xlink:href="#15" y="2.171"/><use xlink:href="#17" y="4.342"/><use xlink:href="#18" y="6.513"/><use xlink:href="#22" y="8.684"/><use xlink:href="#23" y="10.855"/><use xlink:href="#24" y="13.026"/><use xlink:href="#26" y="15.197"/><use xlink:href="#27" y="17.368"/><use xlink:href="#28" y="19.539"/><use xlink:href="#29" y="21.71"/></svg><svg x="4760"><use xlink:href="#a"/><use xlink:href="#1"/><use xlink:href="#15" y="2.171"/><use xlink:href="#17" y="4.342"/><use xlink:href="#18" y="6.513"/><use xlink:href="#22" y="8.684"/><use xlink:href="#23" y="10.855"/><use xlink:href="#24" y="13.026"/><use xlink:href="#26" y="15.197"/><use xlink:href="#27" y="17.368"/><use xlink:href="#28" y="19.539"/><use xlink:href="#29" y="21.71"/></svg><svg x="4845"><use xlink:href="#a"/><use xlink:href="#1"/><use xlink:href="#15" y="2.171"/><use xlink:href="#17" y="4.342"/><use xlink:href="#18" y="6.513"/><use xlink:href="#22" y="8.684"/><use xlink:href="#23" y="10.855"/><use xlink:href="#24" y="13.026"/><use xlink:href="#26" y="15.197"/><use xlink:href="#30" y="17.368"/><use xlink:href="#31" y="19.539"/><text y="23.38" class="k">❯</text><text x="2.004" y="23.38" class="g">☐</text><text x="5.01" y="23.38" class="e">key1</text><use xlink:href="#32" y="23.881"/><use xlink:href="#33" y="26.052"/></svg><svg x="4930"><use xlink:href="#a"/><use xlink:href="#1"/><use xlink:href="#15" y="2.171"/><use xlink:href="#17" y="4.342"/><use xlink:href="#18" y="6.513"/><use xlink:href="#22" y="8.684"/><use xlink:href="#23" y="10.855"/><use xlink:href="#24" y="13.026"/><use xlink:href="#26" y="15.197"/><use xlink:href="#30" y="17.368"/><use xlink:href="#31" y="19.539"/><use xlink:href="#34" y="21.71"/><use xlink:href="#32" y="23.881"/><use xlink:href="#33" y="26.052"/></svg><svg x="5015"><use xlink:href="#a"/><use xlink:href="#1"/><use xlink:href="#15" y="2.171"/><use xlink:href="#17" y="4.342"/><use xlink:href="#18" y="6.513"/><use xlink:href="#22" y="8.684"/><use xlink:href="#23" y="10.855"/><use xlink:href="#24" y="13.026"/><use xlink:href="#26" y="15.197"/><use xlink:href="#30" y="17.368"/><use xlink:href="#31" y="19.539"/><use xlink:href="#34" y="21.71"/><use xlink:href="#32" y="23.881"/><use xlink:href="#33" y="26.052"/></svg><svg x="5100"><use xlink:href="#a"/><use xlink:href="#1"/><use xlink:href="#15" y="2.171"/><use xlink:href="#17" y="4.342"/><use xlink:href="#18" y="6.513"/><use xlink:href="#22" y="8.684"/><use xlink:href="#23" y="10.855"/><use xlink:href="#24" y="13.026"/><use xlink:href="#26" y="15.197"/><use xlink:href="#30" y="17.368"/><use xlink:href="#31" y="19.539"/><use xlink:href="#35" y="21.71"/><use xlink:href="#36" y="23.881"/><use xlink:href="#33" y="26.052"/></svg><svg x="5185"><use xlink:href="#a"/><use xlink:href="#1"/><use xlink:href="#15" y="2.171"/><use xlink:href="#17" y="4.342"/><use xlink:href="#18" y="6.513"/><use xlink:href="#22" y="8.684"/><use xlink:href="#23" y="10.855"/><use xlink:href="#24" y="13.026"/><use xlink:href="#26" y="15.197"/><use xlink:href="#30" y="17.368"/><use xlink:href="#31" y="19.539"/><use xlink:href="#35" y="21.71"/><use xlink:href="#36" y="23.881"/><use xlink:href="#33" y="26.052"/></svg><svg x="5270"><use xlink:href="#a"/><use xlink:href="#1"/><use xlink:href="#15" y="2.171"/><use xlink:href="#17" y="4.342"/><use xlink:href="#18" y="6.513"/><use xlink:href="#22" y="8.684"/><use xlink:href="#23" y="10.855"/><use xlink:href="#24" y="13.026"/><use xlink:href="#26" y="15.197"/><use xlink:href="#30" y="17.368"/><use xlink:href="#31" y="19.539"/><use xlink:href="#35" y="21.71"/><use xlink:href="#37" y="23.881"/><use xlink:href="#33" y="26.052"/></svg><svg x="5355"><use xlink:href="#a"/><use xlink:href="#1"/><use xlink:href="#15" y="2.171"/><use xlink:href="#17" y="4.342"/><use xlink:href="#18" y="6.513"/><use xlink:href="#22" y="8.684"/><use xlink:href="#23" y="10.855"/><use xlink:href="#24" y="13.026"/><use xlink:href="#26" y="15.197"/><use xlink:href="#30" y="17.368"/><use xlink:href="#31" y="19.539"/><use xlink:href="#35" y="21.71"/><use xlink:href="#37" y="23.881"/><use xlink:href="#33" y="26.052"/></svg><svg x="5440"><use xlink:href="#a"/><use xlink:href="#1"/><use xlink:href="#15" y="2.171"/><use xlink:href="#17" y="4.342"/><use xlink:href="#18" y="6.513"/><use xlink:href="#22" y="8.684"/><use xlink:href="#23" y="10.855"/><use xlink:href="#24" y="13.026"/><use xlink:href="#26" y="15.197"/><use xlink:href="#30" y="17.368"/><use xlink:href="#31" y="19.539"/><use xlink:href="#35" y="21.71"/><use xlink:href="#36" y="23.881"/><use xlink:href="#33" y="26.052"/></svg><svg x="5525"><use xlink:href="#a"/><use xlink:href="#1"/><use xlink:href="#15" y="2.171"/><use xlink:href="#17" y="4.342"/><use xlink:href="#18" y="6.513"/><use xlink:href="#22" y="8.684"/><use xlink:href="#23" y="10.855"/><use xlink:href="#24" y="13.026"/><use xlink:href="#26" y="15.197"/><use xlink:href="#30" y="17.368"/><use xlink:href="#31" y="19.539"/><use xlink:href="#35" y="21.71"/><use xlink:href="#36" y="23.881"/><use xlink:href="#33" y="26.052"/></svg><svg x="5610"><use xlink:href="#a"/><use xlink:href="#b" x="9.996" y="21.685"/><use xlink:href="#1"/><use xlink:href="#15" y="2.171"/><use xlink:href="#17" y="4.342"/><use xlink:href="#18" y="6.513"/><use xlink:href="#22" y="8.684"/><use xlink:href="#23" y="10.855"/><use xlink:href="#24" y="13.026"/><use xlink:href="#26" y="15.197"/><use xlink:href="#30" y="17.368"/><use xlink:href="#38" y="19.539"/><use xlink:href="#2" y="21.71"/></svg><svg x="5695"><use xlink:href="#a"/><use xlink:href="#b" x="9.996" y="21.685"/><use xlink:href="#1"/><use xlink:href="#15" y="2.171"/><use xlink:href="#17" y="4.342"/><use xlink:href="#18" y="6.513"/><use xlink:href="#22" y="8.684"/><use xlink:href="#23" y="10.855"/><use xlink:href="#24" y="13.026"/><use xlink:href="#26" y="15.197"/><use xlink:href="#30" y="17.368"/><use xlink:href="#38" y="19.539"/><use xlink:href="#2" y="21.71"/></svg></svg></g></g></svg></svg>