<svg xmlns="http://www.w3.org/2000/svg" xmlns:xlink="http://www.w3.org/1999/xlink" width="850" height="217.1"><rect width="850" height="217.1" rx="0" ry="0" class="a"/><svg height="217.1" viewBox="0 0 85 21.71" width="850" xmlns="http://www.w3.org/2000/svg" xmlns:xlink="http://www.w3.org/1999/xlink"><style>@keyframes l{0%{transform:translateX(0)}10.18%{transform:translateX(-85px)}14.24%{transform:translateX(-170px)}35.2%{transform:translateX(-255px)}45.18%{transform:translateX(-340px)}51%{transform:translateX(-425px)}51.55%{transform:translateX(-510px)}52.03%{transform:translateX(-595px)}58.94%{transform:translateX(-680px)}66.43%{transform:translateX(-765px)}67.59%{transform:translateX(-850px)}68.78%{transform:translateX(-935px)}69.06%{transform:translateX(-1020px)}70.56%{transform:translateX(-1105px)}71.08%{transform:translateX(-1190px)}71.59%{transform:translateX(-1275px)}78.56%{transform:translateX(-1360px)}81.24%{transform:translateX(-1445px)}84.15%{transform:translateX(-1530px)}84.18%{transform:translateX(-1615px)}84.19%{transform:translateX(-1700px)}89.17%{transform:translateX(-1785px)}to{transform:translateX(-1870px)}}.a{fill:#282d35}.c,.d,.e{fill:#b9c0cb;white-space:pre}.d,.e{fill:#dbab79}.e{fill:#b9c0cb}.e,.f{font-weight:700}.f,.g,.h{fill:#a8cc8c;white-space:pre}.h{fill:#66c2cd;font-weight:700}</style><g font-family="Monaco,Consolas,Menlo,'Bitstream Vera Sans Mono','Powerline Symbols',monospace" font-size="1.67"><defs><symbol id="1"><text y="1.67" class="c">java</text><text x="5.01" y="1.67" class="c">-jar</text><text x="10.02" y="1.67" class="c">spring-shell-samples/build/libs/spring-shell-samples.jar</text></symbol><symbol id="2"><text y="1.67" class="d">my-shell:&gt;</text></symbol><symbol id="3"><text y="1.67" class="d">my-shell:&gt;</text><text x="10.02" y="1.67" class="e">component</text><text x="20.04" y="1.67" class="e">path</text><text x="25.05" y="1.67" class="e">search</text></symbol><symbol id="4"><text y="1.67" class="f">?</text><text x="2.004" y="1.67" class="e">Enter</text><text x="8.016" y="1.67" class="e">value</text><text x="14.028" y="1.67" class="c">.</text></symbol><symbol id="5"><text y="1.67" class="g">ℹ</text><text x="2.004" y="1.67" class="g">Type</text><text x="7.014" y="1.67" class="g">&apos;&lt;path&gt;</text><text x="15.03" y="1.67" class="g">&lt;pattern&gt;&apos;</text><text x="26.052" y="1.67" class="g">to</text><text x="29.058" y="1.67" class="g">search,</text><text x="37.074" y="1.67" class="g">20/27</text></symbol><symbol id="6"><text y="1.67" class="h">❯</text><text x="2.004" y="1.67" class="h">buildSrc/src</text></symbol><symbol id="7"><text x="2.004" y="1.67" class="h">buildSrc/src/main</text></symbol><symbol id="8"><text x="2.004" y="1.67" class="h">buildSrc/build.gradle</text></symbol><symbol id="9"><text x="2.004" y="1.67" class="h">buildSrc/src/main/java</text></symbol><symbol id="10"><text x="2.004" y="1.67" class="h">buildSrc/src/main/java/org</text></symbol><symbol id="11"><text y="1.67" class="g">ℹ</text><text x="2.004" y="1.67" class="g">Type</text><text x="7.014" y="1.67" class="g">&apos;&lt;path&gt;</text><text x="15.03" y="1.67" class="g">&lt;pattern&gt;&apos;</text><text x="26.052" y="1.67" class="g">to</text><text x="29.058" y="1.67" class="g">search,</text><text x="37.074" y="1.67" class="g">19/27</text></symbol><symbol id="12"><text y="1.67" class="f">?</text><text x="2.004" y="1.67" class="e">Enter</text><text x="8.016" y="1.67" class="e">value</text><text x="14.028" y="1.67" class="c">.</text><text x="16.032" y="1.67" class="c">gradle</text></symbol><symbol id="13"><text y="1.67" class="h">❯</text><text x="2.004" y="1.67" class="h">buildSrc/src/main/java/org/springframework/shell/</text><text x="51.102" y="1.67" class="d">gradle</text></symbol><symbol id="14"><text x="2.004" y="1.67" class="h">buildSrc/src/main/java/org/springframework/shell/</text><text x="51.102" y="1.67" class="d">gradle</text><text x="57.114" y="1.67" class="h">/BomPlugin.java</text></symbol><symbol id="15"><text x="2.004" y="1.67" class="h">buildSrc/src/main/java/org/springframework/shell/</text><text x="51.102" y="1.67" class="d">gradle</text><text x="57.114" y="1.67" class="h">/DocsPlugin.java</text></symbol><symbol id="16"><text x="2.004" y="1.67" class="h">buildSrc/src/main/java/org/springframework/shell/</text><text x="51.102" y="1.67" class="d">gradle</text><text x="57.114" y="1.67" class="h">/SamplePlugin.java</text></symbol><symbol id="17"><text x="2.004" y="1.67" class="h">buildSrc/src/main/java/org/springframework/shell/</text><text x="51.102" y="1.67" class="d">gradle</text><text x="57.114" y="1.67" class="h">/ModulePlugin.java</text></symbol><symbol id="18"><text y="1.67" class="f">?</text><text x="2.004" y="1.67" class="e">Enter</text><text x="8.016" y="1.67" class="e">value</text><text x="14.028" y="1.67" style="white-space:pre" fill="#71bef2">buildSrc/src/main/java/org/springframework/shell/gradle</text></symbol><symbol id="19"><text y="1.67" class="c">Got</text><text x="4.008" y="1.67" class="c">value</text><text x="10.02" y="1.67" class="c">buildSrc/src/main/java/org/springframework/shell/gradle</text></symbol><symbol id="a"><path fill="transparent" d="M0 0h85v10H0z"/></symbol><symbol id="b"><path fill="#6f7683" d="M0 0h1.102v2.171H0z"/></symbol></defs><path class="a" d="M0 0h85v21.71H0z"/><g style="animation-duration:18.475016s;animation-iteration-count:infinite;animation-name:l;animation-timing-function:steps(1,end)"><svg width="1955"><svg><use xlink:href="#a"/><use xlink:href="#b" x="-.004"/></svg><svg x="85"><use xlink:href="#a"/><use xlink:href="#b" x="65.996"/><use xlink:href="#1"/></svg><svg x="170"><use xlink:href="#a"/><use xlink:href="#b" x="-.004" y="2.146"/><use xlink:href="#1"/></svg><svg x="255"><use xlink:href="#a"/><use xlink:href="#b" x="9.996" y="2.146"/><use xlink:href="#1"/><use xlink:href="#2" y="2.171"/></svg><svg x="340"><use xlink:href="#a"/><use xlink:href="#b" x="30.996" y="2.146"/><use xlink:href="#1"/><use xlink:href="#3" y="2.171"/></svg><svg x="425"><use xlink:href="#a"/><use xlink:href="#b" x="-.004" y="4.317"/><use xlink:href="#1"/><use xlink:href="#3" y="2.171"/></svg><svg x="510"><use xlink:href="#a"/><use xlink:href="#1"/><use xlink:href="#3" y="2.171"/></svg><svg x="595"><use xlink:href="#a"/><use xlink:href="#1"/><use xlink:href="#3" y="2.171"/><text y="6.012" class="f">?</text><text x="2.004" y="6.012" class="e">Enter</text><text x="8.016" y="6.012" class="e">value</text><text y="8.183" class="g">ℹ</text><text x="2.004" y="8.183" class="g">Type</text><text x="7.014" y="8.183" class="g">&apos;&lt;path&gt;</text><text x="15.03" y="8.183" class="g">&lt;pattern&gt;&apos;</text><text x="26.052" y="8.183" class="g">to</text><text x="29.058" y="8.183" class="g">search</text></svg><svg x="680"><use xlink:href="#a"/><use xlink:href="#1"/><use xlink:href="#3" y="2.171"/><use xlink:href="#4" y="4.342"/><use xlink:href="#5" y="6.513"/><use xlink:href="#6" y="8.684"/><use xlink:href="#7" y="10.855"/><use xlink:href="#8" y="13.026"/><use xlink:href="#9" y="15.197"/><use xlink:href="#10" y="17.368"/></svg><svg x="765"><use xlink:href="#a"/><use xlink:href="#1"/><use xlink:href="#3" y="2.171"/><use xlink:href="#4" y="4.342"/><use xlink:href="#5" y="6.513"/><use xlink:href="#6" y="8.684"/><use xlink:href="#7" y="10.855"/><use xlink:href="#8" y="13.026"/><use xlink:href="#9" y="15.197"/><use xlink:href="#10" y="17.368"/></svg><svg x="850"><use xlink:href="#a"/><use xlink:href="#1"/><use xlink:href="#3" y="2.171"/><text y="6.012" class="f">?</text><text x="2.004" y="6.012" class="e">Enter</text><text x="8.016" y="6.012" class="e">value</text><text x="14.028" y="6.012" class="c">.</text><text x="16.032" y="6.012" class="c">g</text><use xlink:href="#5" y="6.513"/><text y="10.354" class="h">❯</text><text x="2.004" y="10.354" class="h">buildSrc/src/main/java/org/springframework/shell/</text><text x="51.102" y="10.354" class="d">g</text><text x="52.104" y="10.354" class="h">radle</text><text x="2.004" y="12.525" class="h">buildSrc/src/main/java/org/springframework/shell/</text><text x="51.102" y="12.525" class="d">g</text><text x="52.104" y="12.525" class="h">radle/BomPlugin.java</text><text x="2.004" y="14.696" class="h">buildSrc/src/main/java/org/springframework/shell/</text><text x="51.102" y="14.696" class="d">g</text><text x="52.104" y="14.696" class="h">radle/DocsPlugin.java</text><text x="2.004" y="16.867" class="h">buildSrc/src/main/java/org/springframework/shell/</text><text x="51.102" y="16.867" class="d">g</text><text x="52.104" y="16.867" class="h">radle/RootPlugin.java</text><text x="2.004" y="19.038" class="h">buildSrc/src/main/java/org/springframework/shell/</text><text x="51.102" y="19.038" class="d">g</text><text x="52.104" y="19.038" class="h">radle/ModulePlugin.java</text></svg><svg x="935"><use xlink:href="#a"/><use xlink:href="#1"/><use xlink:href="#3" y="2.171"/><text y="6.012" class="f">?</text><text x="2.004" y="6.012" class="e">Enter</text><text x="8.016" y="6.012" class="e">value</text><text x="14.028" y="6.012" class="c">.</text><text x="16.032" y="6.012" class="c">gr</text><use xlink:href="#5" y="6.513"/><text y="10.354" class="h">❯</text><text x="2.004" y="10.354" class="h">buildSrc/src/main/java/org/springframework/shell/</text><text x="51.102" y="10.354" class="d">gr</text><text x="53.106" y="10.354" class="h">adle</text><text x="2.004" y="12.525" class="h">buildSrc/src/main/java/org/springframework/shell/</text><text x="51.102" y="12.525" class="d">gr</text><text x="53.106" y="12.525" class="h">adle/BomPlugin.java</text><text x="2.004" y="14.696" class="h">buildSrc/src/main/java/org/springframework/shell/</text><text x="51.102" y="14.696" class="d">gr</text><text x="53.106" y="14.696" class="h">adle/RootPlugin.java</text><text x="2.004" y="16.867" class="h">buildSrc/src/main/java/org/springframework/shell/</text><text x="51.102" y="16.867" class="d">gr</text><text x="53.106" y="16.867" class="h">adle/DocsPlugin.java</text><text x="2.004" y="19.038" class="h">buildSrc/src/main/java/org/springframework/shell/</text><text x="51.102" y="19.038" class="d">gr</text><text x="53.106" y="19.038" class="h">adle/SamplePlugin.java</text></svg><svg x="1020"><use xlink:href="#a"/><use xlink:href="#1"/><use xlink:href="#3" y="2.171"/><text y="6.012" class="f">?</text><text x="2.004" y="6.012" class="e">Enter</text><text x="8.016" y="6.012" class="e">value</text><text x="14.028" y="6.012" class="c">.</text><text x="16.032" y="6.012" class="c">gra</text><use xlink:href="#5" y="6.513"/><text y="10.354" class="h">❯</text><text x="2.004" y="10.354" class="h">buildSrc/src/main/java/org/springframework/shell/</text><text x="51.102" y="10.354" class="d">gra</text><text x="54.108" y="10.354" class="h">dle</text><text x="2.004" y="12.525" class="h">buildSrc/src/main/java/org/springframework/shell/</text><text x="51.102" y="12.525" class="d">gra</text><text x="54.108" y="12.525" class="h">dle/BomPlugin.java</text><text x="2.004" y="14.696" class="h">buildSrc/src/main/java/org/springframework/shell/</text><text x="51.102" y="14.696" class="d">gra</text><text x="54.108" y="14.696" class="h">dle/RootPlugin.java</text><text x="2.004" y="16.867" class="h">buildSrc/src/main/java/org/springframework/shell/</text><text x="51.102" y="16.867" class="d">gra</text><text x="54.108" y="16.867" class="h">dle/DocsPlugin.java</text><text x="2.004" y="19.038" class="h">buildSrc/src/main/java/org/springframework/shell/</text><text x="51.102" y="19.038" class="d">gra</text><text x="54.108" y="19.038" class="h">dle/ModulePlugin.java</text></svg><svg x="1105"><use xlink:href="#a"/><use xlink:href="#1"/><use xlink:href="#3" y="2.171"/><text y="6.012" class="f">?</text><text x="2.004" y="6.012" class="e">Enter</text><text x="8.016" y="6.012" class="e">value</text><text x="14.028" y="6.012" class="c">.</text><text x="16.032" y="6.012" class="c">grad</text><use xlink:href="#11" y="6.513"/><text y="10.354" class="h">❯</text><text x="2.004" y="10.354" class="h">buildSrc/src/main/java/org/springframework/shell/</text><text x="51.102" y="10.354" class="d">grad</text><text x="55.11" y="10.354" class="h">le</text><text x="2.004" y="12.525" class="h">buildSrc/src/main/java/org/springframework/shell/</text><text x="51.102" y="12.525" class="d">grad</text><text x="55.11" y="12.525" class="h">le/BomPlugin.java</text><text x="2.004" y="14.696" class="h">buildSrc/src/main/java/org/springframework/shell/</text><text x="51.102" y="14.696" class="d">grad</text><text x="55.11" y="14.696" class="h">le/DocsPlugin.java</text><text x="2.004" y="16.867" class="h">buildSrc/src/main/java/org/springframework/shell/</text><text x="51.102" y="16.867" class="d">grad</text><text x="55.11" y="16.867" class="h">le/ModulePlugin.java</text><text x="2.004" y="19.038" class="h">buildSrc/src/main/java/org/springframework/shell/</text><text x="51.102" y="19.038" class="d">grad</text><text x="55.11" y="19.038" class="h">le/SamplePlugin.java</text></svg><svg x="1190"><use xlink:href="#a"/><use xlink:href="#1"/><use xlink:href="#3" y="2.171"/><text y="6.012" class="f">?</text><text x="2.004" y="6.012" class="e">Enter</text><text x="8.016" y="6.012" class="e">value</text><text x="14.028" y="6.012" class="c">.</text><text x="16.032" y="6.012" class="c">gradl</text><use xlink:href="#11" y="6.513"/><text y="10.354" class="h">❯</text><text x="2.004" y="10.354" class="h">buildSrc/src/main/java/org/springframework/shell/</text><text x="51.102" y="10.354" class="d">gradl</text><text x="56.112" y="10.354" class="h">e</text><text x="2.004" y="12.525" class="h">buildSrc/src/main/java/org/springframework/shell/</text><text x="51.102" y="12.525" class="d">gradl</text><text x="56.112" y="12.525" class="h">e/BomPlugin.java</text><text x="2.004" y="14.696" class="h">buildSrc/src/main/java/org/springframework/shell/</text><text x="51.102" y="14.696" class="d">gradl</text><text x="56.112" y="14.696" class="h">e/DocsPlugin.java</text><text x="2.004" y="16.867" class="h">buildSrc/src/main/java/org/springframework/shell/</text><text x="51.102" y="16.867" class="d">gradl</text><text x="56.112" y="16.867" class="h">e/SamplePlugin.java</text><text x="2.004" y="19.038" class="h">buildSrc/src/main/java/org/springframework/shell/</text><text x="51.102" y="19.038" class="d">gradl</text><text x="56.112" y="19.038" class="h">e/ModulePlugin.java</text></svg><svg x="1275"><use xlink:href="#a"/><use xlink:href="#1"/><use xlink:href="#3" y="2.171"/><use xlink:href="#12" y="4.342"/><use xlink:href="#11" y="6.513"/><use xlink:href="#13" y="8.684"/><use xlink:href="#14" y="10.855"/><use xlink:href="#15" y="13.026"/><use xlink:href="#16" y="15.197"/><use xlink:href="#17" y="17.368"/></svg><svg x="1360"><use xlink:href="#a"/><use xlink:href="#1"/><use xlink:href="#3" y="2.171"/><use xlink:href="#12" y="4.342"/><use xlink:href="#11" y="6.513"/><text x="2.004" y="10.354" class="h">buildSrc/src/main/java/org/springframework/shell/</text><text x="51.102" y="10.354" class="d">gradle</text><text y="12.525" class="h">❯</text><text x="2.004" y="12.525" class="h">buildSrc/src/main/java/org/springframework/shell/</text><text x="51.102" y="12.525" class="d">gradle</text><text x="57.114" y="12.525" class="h">/BomPlugin.java</text><use xlink:href="#15" y="13.026"/><use xlink:href="#16" y="15.197"/><use xlink:href="#17" y="17.368"/></svg><svg x="1445"><use xlink:href="#a"/><use xlink:href="#1"/><use xlink:href="#3" y="2.171"/><use xlink:href="#12" y="4.342"/><use xlink:href="#11" y="6.513"/><use xlink:href="#13" y="8.684"/><use xlink:href="#14" y="10.855"/><use xlink:href="#15" y="13.026"/><use xlink:href="#16" y="15.197"/><use xlink:href="#17" y="17.368"/></svg><svg x="1530"><use xlink:href="#a"/><use xlink:href="#b" x="-.004" y="4.317"/><use xlink:href="#1"/><use xlink:href="#3" y="2.171"/></svg><svg x="1615"><use xlink:href="#a"/><use xlink:href="#b" x="-.004" y="6.488"/><use xlink:href="#1"/><use xlink:href="#3" y="2.171"/><use xlink:href="#18" y="4.342"/></svg><svg x="1700"><use xlink:href="#a"/><use xlink:href="#b" x="-.004" y="8.659"/><use xlink:href="#1"/><use xlink:href="#3" y="2.171"/><use xlink:href="#18" y="4.342"/><use xlink:href="#19" y="6.513"/></svg><svg x="1785"><use xlink:href="#a"/><use xlink:href="#b" x="9.996" y="8.659"/><use xlink:href="#1"/><use xlink:href="#3" y="2.171"/><use xlink:href="#18" y="4.342"/><use xlink:href="#19" y="6.513"/><use xlink:href="#2" y="8.684"/></svg><svg x="1870"><use xlink:href="#a"/><use xlink:href="#b" x="19.996" y="8.659"/><use xlink:href="#1"/><use xlink:href="#3" y="2.171"/><use xlink:href="#18" y="4.342"/><use xlink:href="#19" y="6.513"/><text y="10.354" class="d">my-shell:&gt;my-shell:&gt;</text></svg></svg></g></g></svg></svg>