<svg xmlns="http://www.w3.org/2000/svg" xmlns:xlink="http://www.w3.org/1999/xlink" width="850" height="325.65"><rect width="850" height="325.65" rx="0" ry="0" class="a"/><svg height="325.65" viewBox="0 0 85 32.565" width="850" xmlns="http://www.w3.org/2000/svg" xmlns:xlink="http://www.w3.org/1999/xlink"><style>@keyframes m{0%{transform:translateX(0)}5.24%{transform:translateX(-85px)}19.65%{transform:translateX(-170px)}26.67%{transform:translateX(-255px)}37.08%{transform:translateX(-340px)}41.64%{transform:translateX(-425px)}41.89%{transform:translateX(-510px)}42.08%{transform:translateX(-595px)}48.41%{transform:translateX(-680px)}48.44%{transform:translateX(-765px)}48.45%{transform:translateX(-850px)}48.47%{transform:translateX(-935px)}52.96%{transform:translateX(-1020px)}53.27%{transform:translateX(-1105px)}54.72%{transform:translateX(-1190px)}54.74%{transform:translateX(-1275px)}54.75%{transform:translateX(-1360px)}54.77%{transform:translateX(-1445px)}66.15%{transform:translateX(-1530px)}66.18%{transform:translateX(-1615px)}66.19%{transform:translateX(-1700px)}66.2%{transform:translateX(-1785px)}70.9%{transform:translateX(-1870px)}71.21%{transform:translateX(-1955px)}72.1%{transform:translateX(-2040px)}72.24%{transform:translateX(-2125px)}75.87%{transform:translateX(-2210px)}75.88%{transform:translateX(-2295px)}75.89%{transform:translateX(-2380px)}75.91%{transform:translateX(-2465px)}80.74%{transform:translateX(-2550px)}83.74%{transform:translateX(-2635px)}83.76%{transform:translateX(-2720px)}83.77%{transform:translateX(-2805px)}83.79%{transform:translateX(-2890px)}87.91%{transform:translateX(-2975px)}92.27%{transform:translateX(-3060px)}92.56%{transform:translateX(-3145px)}96.31%{transform:translateX(-3230px)}99.97%{transform:translateX(-3315px)}99.99%{transform:translateX(-3400px)}to{transform:translateX(-3485px)}}.a{fill:#282d35}.c,.d{fill:#b9c0cb;white-space:pre}.d{fill:#dbab79}.e,.f{font-weight:700}.e{fill:#b9c0cb;white-space:pre}.f{fill:#a8cc8c}.f,.g,.h,.i,.j{white-space:pre}.g{fill:#fff;font-weight:700}.h,.i,.j{fill:#71bef2}.i,.j{fill:#a8cc8c}.j{fill:#66c2cd;font-weight:700}</style><g font-family="Monaco,Consolas,Menlo,'Bitstream Vera Sans Mono','Powerline Symbols',monospace" font-size="1.67"><defs><symbol id="1"><text y="1.67" class="c">java</text><text x="5.01" y="1.67" class="c">-jar</text><text x="10.02" y="1.67" class="c">spring-shell-samples/target/spring-shell-samples-2.1.0-SNAPSHOT.jar</text></symbol><symbol id="2"><text y="1.67" class="d">my-shell:&gt;</text></symbol><symbol id="3"><text y="1.67" class="d">my-shell:&gt;</text><text x="10.02" y="1.67" class="e">flow</text><text x="15.03" y="1.67" class="e">showcase</text></symbol><symbol id="4"><text y="1.67" class="f">?</text><text x="2.004" y="1.67" class="g">Field1</text><text x="9.018" y="1.67" class="h">defaultField1Value</text></symbol><symbol id="5"><text y="1.67" class="f">?</text><text x="2.004" y="1.67" class="g">Field2</text><text x="9.018" y="1.67" class="h">hi</text></symbol><symbol id="6"><text y="1.67" class="f">?</text><text x="2.004" y="1.67" class="g">Confirmation1</text><text x="16.032" y="1.67" class="h">true</text></symbol><symbol id="7"><text y="1.67" class="i">&gt;</text><text x="2.004" y="1.67" class="i">Path</text><text x="7.014" y="1.67" class="i">ok</text></symbol><symbol id="8"><text y="1.67" class="f">?</text><text x="2.004" y="1.67" class="g">Path1</text><text x="8.016" y="1.67" class="h">path</text></symbol><symbol id="9"><text y="1.67" class="f">?</text><text x="2.004" y="1.67" class="g">Single1</text><text x="10.02" y="1.67" class="c">[Use</text><text x="15.03" y="1.67" class="c">arrows</text><text x="22.044" y="1.67" class="c">to</text><text x="25.05" y="1.67" class="c">move],</text><text x="32.064" y="1.67" class="c">type</text><text x="37.074" y="1.67" class="c">to</text><text x="40.08" y="1.67" class="c">filter</text></symbol><symbol id="10"><text y="1.67" class="f">?</text><text x="2.004" y="1.67" class="g">Single1</text><text x="10.02" y="1.67" class="h">value2</text></symbol><symbol id="11"><text y="1.67" class="f">?</text><text x="2.004" y="1.67" class="g">Multi1</text><text x="9.018" y="1.67" class="c">[Use</text><text x="14.028" y="1.67" class="c">arrows</text><text x="21.042" y="1.67" class="c">to</text><text x="24.048" y="1.67" class="c">move],</text><text x="31.062" y="1.67" class="c">type</text><text x="36.072" y="1.67" class="c">to</text><text x="39.078" y="1.67" class="c">filter</text></symbol><symbol id="12"><text x="2.004" y="1.67" class="e">[</text><text x="4.008" y="1.67" class="e">]</text><text x="6.012" y="1.67" class="c">key2</text></symbol><symbol id="13"><text x="2.004" y="1.67" class="e">[</text><text x="4.008" y="1.67" class="e">]</text><text x="6.012" y="1.67" class="c">key3</text></symbol><symbol id="14"><text x="2.004" y="1.67" class="i">[x]</text><text x="6.012" y="1.67" class="c">key1</text></symbol><symbol id="15"><text y="1.67" class="j">&gt;</text><text x="2.004" y="1.67" class="e">[</text><text x="4.008" y="1.67" class="e">]</text><text x="6.012" y="1.67" class="c">key2</text></symbol><symbol id="16"><text y="1.67" class="f">?</text><text x="2.004" y="1.67" class="g">Multi1</text><text x="9.018" y="1.67" class="h">value1</text></symbol><symbol id="a"><path fill="transparent" d="M0 0h85v15H0z"/></symbol><symbol id="b"><path fill="#6f7683" d="M0 0h1.102v2.171H0z"/></symbol></defs><path class="a" d="M0 0h85v32.565H0z"/><g style="animation-duration:30.370638s;animation-iteration-count:infinite;animation-name:m;animation-timing-function:steps(1,end)"><svg width="3570"><svg><use xlink:href="#a"/><use xlink:href="#b" x="-.004"/></svg><svg x="85"><use xlink:href="#a"/><use xlink:href="#b" x="76.996"/><use xlink:href="#1"/></svg><svg x="170"><use xlink:href="#a"/><use xlink:href="#b" x="-.004" y="2.146"/><use xlink:href="#1"/></svg><svg x="255"><use xlink:href="#a"/><use xlink:href="#b" x="9.996" y="2.146"/><use xlink:href="#1"/><use xlink:href="#2" y="2.171"/></svg><svg x="340"><use xlink:href="#a"/><use xlink:href="#b" x="22.996" y="2.146"/><use xlink:href="#1"/><use xlink:href="#3" y="2.171"/></svg><svg x="425"><use xlink:href="#a"/><use xlink:href="#b" x="-.004" y="4.317"/><use xlink:href="#1"/><use xlink:href="#3" y="2.171"/></svg><svg x="510"><use xlink:href="#a"/><use xlink:href="#1"/><use xlink:href="#3" y="2.171"/></svg><svg x="595"><use xlink:href="#a"/><use xlink:href="#1"/><use xlink:href="#3" y="2.171"/><text y="6.012" class="f">?</text><text x="2.004" y="6.012" class="g">Field1</text><text x="9.018" y="6.012" class="h">[Default</text><text x="18.036" y="6.012" class="h">defaultField1Value]</text></svg><svg x="680"><use xlink:href="#a"/><use xlink:href="#b" x="-.004" y="4.317"/><use xlink:href="#1"/><use xlink:href="#3" y="2.171"/></svg><svg x="765"><use xlink:href="#a"/><use xlink:href="#b" x="-.004" y="6.488"/><use xlink:href="#1"/><use xlink:href="#3" y="2.171"/><use xlink:href="#4" y="4.342"/></svg><svg x="850"><use xlink:href="#a"/><use xlink:href="#1"/><use xlink:href="#3" y="2.171"/><use xlink:href="#4" y="4.342"/></svg><svg x="935"><use xlink:href="#a"/><use xlink:href="#1"/><use xlink:href="#3" y="2.171"/><use xlink:href="#4" y="4.342"/><text y="8.183" class="f">?</text><text x="2.004" y="8.183" class="g">Field2</text></svg><svg x="1020"><use xlink:href="#a"/><use xlink:href="#1"/><use xlink:href="#3" y="2.171"/><use xlink:href="#4" y="4.342"/><text y="8.183" class="f">?</text><text x="2.004" y="8.183" class="g">Field2</text><text x="9.018" y="8.183" class="c">h</text></svg><svg x="1105"><use xlink:href="#a"/><use xlink:href="#1"/><use xlink:href="#3" y="2.171"/><use xlink:href="#4" y="4.342"/><text y="8.183" class="f">?</text><text x="2.004" y="8.183" class="g">Field2</text><text x="9.018" y="8.183" class="c">hi</text></svg><svg x="1190"><use xlink:href="#a"/><use xlink:href="#b" x="-.004" y="6.488"/><use xlink:href="#1"/><use xlink:href="#3" y="2.171"/><use xlink:href="#4" y="4.342"/></svg><svg x="1275"><use xlink:href="#a"/><use xlink:href="#b" x="-.004" y="8.659"/><use xlink:href="#1"/><use xlink:href="#3" y="2.171"/><use xlink:href="#4" y="4.342"/><use xlink:href="#5" y="6.513"/></svg><svg x="1360"><use xlink:href="#a"/><use xlink:href="#1"/><use xlink:href="#3" y="2.171"/><use xlink:href="#4" y="4.342"/><use xlink:href="#5" y="6.513"/></svg><svg x="1445"><use xlink:href="#a"/><use xlink:href="#1"/><use xlink:href="#3" y="2.171"/><use xlink:href="#4" y="4.342"/><use xlink:href="#5" y="6.513"/><text y="10.354" class="f">?</text><text x="2.004" y="10.354" class="g">Confirmation1</text><text x="16.032" y="10.354" class="c">(Y/n)</text></svg><svg x="1530"><use xlink:href="#a"/><use xlink:href="#b" x="-.004" y="8.659"/><use xlink:href="#1"/><use xlink:href="#3" y="2.171"/><use xlink:href="#4" y="4.342"/><use xlink:href="#5" y="6.513"/></svg><svg x="1615"><use xlink:href="#a"/><use xlink:href="#b" x="-.004" y="10.83"/><use xlink:href="#1"/><use xlink:href="#3" y="2.171"/><use xlink:href="#4" y="4.342"/><use xlink:href="#5" y="6.513"/><use xlink:href="#6" y="8.684"/></svg><svg x="1700"><use xlink:href="#a"/><use xlink:href="#1"/><use xlink:href="#3" y="2.171"/><use xlink:href="#4" y="4.342"/><use xlink:href="#5" y="6.513"/><use xlink:href="#6" y="8.684"/></svg><svg x="1785"><use xlink:href="#a"/><use xlink:href="#1"/><use xlink:href="#3" y="2.171"/><use xlink:href="#4" y="4.342"/><use xlink:href="#5" y="6.513"/><use xlink:href="#6" y="8.684"/><text y="12.525" class="f">?</text><text x="2.004" y="12.525" class="g">Path1</text></svg><svg x="1870"><use xlink:href="#a"/><use xlink:href="#1"/><use xlink:href="#3" y="2.171"/><use xlink:href="#4" y="4.342"/><use xlink:href="#5" y="6.513"/><use xlink:href="#6" y="8.684"/><text y="12.525" class="f">?</text><text x="2.004" y="12.525" class="g">Path1</text><text x="8.016" y="12.525" class="c">p</text><use xlink:href="#7" y="13.026"/></svg><svg x="1955"><use xlink:href="#a"/><use xlink:href="#1"/><use xlink:href="#3" y="2.171"/><use xlink:href="#4" y="4.342"/><use xlink:href="#5" y="6.513"/><use xlink:href="#6" y="8.684"/><text y="12.525" class="f">?</text><text x="2.004" y="12.525" class="g">Path1</text><text x="8.016" y="12.525" class="c">pa</text><use xlink:href="#7" y="13.026"/></svg><svg x="2040"><use xlink:href="#a"/><use xlink:href="#1"/><use xlink:href="#3" y="2.171"/><use xlink:href="#4" y="4.342"/><use xlink:href="#5" y="6.513"/><use xlink:href="#6" y="8.684"/><text y="12.525" class="f">?</text><text x="2.004" y="12.525" class="g">Path1</text><text x="8.016" y="12.525" class="c">pat</text><use xlink:href="#7" y="13.026"/></svg><svg x="2125"><use xlink:href="#a"/><use xlink:href="#1"/><use xlink:href="#3" y="2.171"/><use xlink:href="#4" y="4.342"/><use xlink:href="#5" y="6.513"/><use xlink:href="#6" y="8.684"/><text y="12.525" class="f">?</text><text x="2.004" y="12.525" class="g">Path1</text><text x="8.016" y="12.525" class="c">path</text><use xlink:href="#7" y="13.026"/></svg><svg x="2210"><use xlink:href="#a"/><use xlink:href="#b" x="-.004" y="10.83"/><use xlink:href="#1"/><use xlink:href="#3" y="2.171"/><use xlink:href="#4" y="4.342"/><use xlink:href="#5" y="6.513"/><use xlink:href="#6" y="8.684"/></svg><svg x="2295"><use xlink:href="#a"/><use xlink:href="#b" x="-.004" y="13.001"/><use xlink:href="#1"/><use xlink:href="#3" y="2.171"/><use xlink:href="#4" y="4.342"/><use xlink:href="#5" y="6.513"/><use xlink:href="#6" y="8.684"/><use xlink:href="#8" y="10.855"/></svg><svg x="2380"><use xlink:href="#a"/><use xlink:href="#1"/><use xlink:href="#3" y="2.171"/><use xlink:href="#4" y="4.342"/><use xlink:href="#5" y="6.513"/><use xlink:href="#6" y="8.684"/><use xlink:href="#8" y="10.855"/></svg><svg x="2465"><use xlink:href="#a"/><use xlink:href="#1"/><use xlink:href="#3" y="2.171"/><use xlink:href="#4" y="4.342"/><use xlink:href="#5" y="6.513"/><use xlink:href="#6" y="8.684"/><use xlink:href="#8" y="10.855"/><use xlink:href="#9" y="13.026"/><text y="16.867" class="j">&gt;</text><text x="2.004" y="16.867" class="j">key1</text><text x="2.004" y="19.038" class="c">key2</text></svg><svg x="2550"><use xlink:href="#a"/><use xlink:href="#1"/><use xlink:href="#3" y="2.171"/><use xlink:href="#4" y="4.342"/><use xlink:href="#5" y="6.513"/><use xlink:href="#6" y="8.684"/><use xlink:href="#8" y="10.855"/><use xlink:href="#9" y="13.026"/><text x="2.004" y="16.867" class="c">key1</text><text y="19.038" class="j">&gt;</text><text x="2.004" y="19.038" class="j">key2</text></svg><svg x="2635"><use xlink:href="#a"/><use xlink:href="#b" x="-.004" y="13.001"/><use xlink:href="#1"/><use xlink:href="#3" y="2.171"/><use xlink:href="#4" y="4.342"/><use xlink:href="#5" y="6.513"/><use xlink:href="#6" y="8.684"/><use xlink:href="#8" y="10.855"/></svg><svg x="2720"><use xlink:href="#a"/><use xlink:href="#b" x="-.004" y="15.172"/><use xlink:href="#1"/><use xlink:href="#3" y="2.171"/><use xlink:href="#4" y="4.342"/><use xlink:href="#5" y="6.513"/><use xlink:href="#6" y="8.684"/><use xlink:href="#8" y="10.855"/><use xlink:href="#10" y="13.026"/></svg><svg x="2805"><use xlink:href="#a"/><use xlink:href="#1"/><use xlink:href="#3" y="2.171"/><use xlink:href="#4" y="4.342"/><use xlink:href="#5" y="6.513"/><use xlink:href="#6" y="8.684"/><use xlink:href="#8" y="10.855"/><use xlink:href="#10" y="13.026"/></svg><svg x="2890"><use xlink:href="#a"/><use xlink:href="#1"/><use xlink:href="#3" y="2.171"/><use xlink:href="#4" y="4.342"/><use xlink:href="#5" y="6.513"/><use xlink:href="#6" y="8.684"/><use xlink:href="#8" y="10.855"/><use xlink:href="#10" y="13.026"/><use xlink:href="#11" y="15.197"/><text y="19.038" class="j">&gt;</text><text x="2.004" y="19.038" class="e">[</text><text x="4.008" y="19.038" class="e">]</text><text x="6.012" y="19.038" class="c">key1</text><use xlink:href="#12" y="19.539"/><use xlink:href="#13" y="21.71"/></svg><svg x="2975"><use xlink:href="#a"/><use xlink:href="#1"/><use xlink:href="#3" y="2.171"/><use xlink:href="#4" y="4.342"/><use xlink:href="#5" y="6.513"/><use xlink:href="#6" y="8.684"/><use xlink:href="#8" y="10.855"/><use xlink:href="#10" y="13.026"/><use xlink:href="#11" y="15.197"/><text y="19.038" class="j">&gt;</text><text x="2.004" y="19.038" class="i">[x]</text><text x="6.012" y="19.038" class="c">key1</text><use xlink:href="#12" y="19.539"/><use xlink:href="#13" y="21.71"/></svg><svg x="3060"><use xlink:href="#a"/><use xlink:href="#1"/><use xlink:href="#3" y="2.171"/><use xlink:href="#4" y="4.342"/><use xlink:href="#5" y="6.513"/><use xlink:href="#6" y="8.684"/><use xlink:href="#8" y="10.855"/><use xlink:href="#10" y="13.026"/><use xlink:href="#11" y="15.197"/><use xlink:href="#14" y="17.368"/><use xlink:href="#15" y="19.539"/><use xlink:href="#13" y="21.71"/></svg><svg x="3145"><use xlink:href="#a"/><use xlink:href="#1"/><use xlink:href="#3" y="2.171"/><use xlink:href="#4" y="4.342"/><use xlink:href="#5" y="6.513"/><use xlink:href="#6" y="8.684"/><use xlink:href="#8" y="10.855"/><use xlink:href="#10" y="13.026"/><use xlink:href="#11" y="15.197"/><use xlink:href="#14" y="17.368"/><text y="21.209" class="j">&gt;</text><text x="2.004" y="21.209" class="i">[x]</text><text x="6.012" y="21.209" class="c">key2</text><use xlink:href="#13" y="21.71"/></svg><svg x="3230"><use xlink:href="#a"/><use xlink:href="#1"/><use xlink:href="#3" y="2.171"/><use xlink:href="#4" y="4.342"/><use xlink:href="#5" y="6.513"/><use xlink:href="#6" y="8.684"/><use xlink:href="#8" y="10.855"/><use xlink:href="#10" y="13.026"/><use xlink:href="#11" y="15.197"/><use xlink:href="#14" y="17.368"/><use xlink:href="#15" y="19.539"/><use xlink:href="#13" y="21.71"/></svg><svg x="3315"><use xlink:href="#a"/><use xlink:href="#b" x="-.004" y="15.172"/><use xlink:href="#1"/><use xlink:href="#3" y="2.171"/><use xlink:href="#4" y="4.342"/><use xlink:href="#5" y="6.513"/><use xlink:href="#6" y="8.684"/><use xlink:href="#8" y="10.855"/><use xlink:href="#10" y="13.026"/></svg><svg x="3400"><use xlink:href="#a"/><use xlink:href="#b" x="-.004" y="17.343"/><use xlink:href="#1"/><use xlink:href="#3" y="2.171"/><use xlink:href="#4" y="4.342"/><use xlink:href="#5" y="6.513"/><use xlink:href="#6" y="8.684"/><use xlink:href="#8" y="10.855"/><use xlink:href="#10" y="13.026"/><use xlink:href="#16" y="15.197"/></svg><svg x="3485"><use xlink:href="#a"/><use xlink:href="#b" x="9.996" y="17.343"/><use xlink:href="#1"/><use xlink:href="#3" y="2.171"/><use xlink:href="#4" y="4.342"/><use xlink:href="#5" y="6.513"/><use xlink:href="#6" y="8.684"/><use xlink:href="#8" y="10.855"/><use xlink:href="#10" y="13.026"/><use xlink:href="#16" y="15.197"/><use xlink:href="#2" y="17.368"/></svg></svg></g></g></svg></svg>