<svg xmlns="http://www.w3.org/2000/svg" xmlns:xlink="http://www.w3.org/1999/xlink" width="850" height="195.39"><rect width="850" height="195.39" rx="0" ry="0" class="a"/><svg height="195.39" viewBox="0 0 85 19.539" width="850" xmlns="http://www.w3.org/2000/svg" xmlns:xlink="http://www.w3.org/1999/xlink"><style>@keyframes n{0%{transform:translateX(0)}6.55%{transform:translateX(-85px)}10.81%{transform:translateX(-170px)}17.27%{transform:translateX(-255px)}19.16%{transform:translateX(-340px)}19.52%{transform:translateX(-425px)}20.37%{transform:translateX(-510px)}21.13%{transform:translateX(-595px)}21.36%{transform:translateX(-680px)}22.01%{transform:translateX(-765px)}22.59%{transform:translateX(-850px)}22.85%{transform:translateX(-935px)}23.46%{transform:translateX(-1020px)}26.74%{transform:translateX(-1105px)}27.47%{transform:translateX(-1190px)}28.33%{transform:translateX(-1275px)}29.27%{transform:translateX(-1360px)}31.11%{transform:translateX(-1445px)}31.29%{transform:translateX(-1530px)}31.52%{transform:translateX(-1615px)}46.03%{transform:translateX(-1700px)}46.94%{transform:translateX(-1785px)}48.58%{transform:translateX(-1870px)}50.13%{transform:translateX(-1955px)}53.24%{transform:translateX(-2040px)}53.87%{transform:translateX(-2125px)}54.39%{transform:translateX(-2210px)}54.94%{transform:translateX(-2295px)}59.15%{transform:translateX(-2380px)}61.9%{transform:translateX(-2465px)}62.59%{transform:translateX(-2550px)}67.47%{transform:translateX(-2635px)}70.58%{transform:translateX(-2720px)}76.75%{transform:translateX(-2805px)}81.45%{transform:translateX(-2890px)}83.33%{transform:translateX(-2975px)}87.46%{transform:translateX(-3060px)}92.47%{transform:translateX(-3145px)}92.49%{transform:translateX(-3315px)}92.5%{transform:translateX(-3400px)}to{transform:translateX(-3485px)}}.a{fill:#282d35}.c,.d,.e,.f{fill:#b9c0cb;white-space:pre}.d,.e,.f{fill:#dbab79}.e,.f{fill:#e88388}.f{fill:#b9c0cb}.f,.g,.h{font-weight:700}.g{fill:#a8cc8c;white-space:pre}.h{fill:#fff}.h,.i,.j{white-space:pre}.i{fill:#66c2cd;font-weight:700}.j{fill:#a8cc8c}</style><g font-family="Monaco,Consolas,Menlo,'Bitstream Vera Sans Mono','Powerline Symbols',monospace" font-size="1.67"><defs><symbol id="1"><text y="1.67" class="c">java</text><text x="5.01" y="1.67" class="c">-jar</text><text x="10.02" y="1.67" class="c">spring-shell-samples/target/spring-shell-samples-2.1.0-SNAPSHOT.jar</text></symbol><symbol id="2"><text y="1.67" class="d">my-shell:&gt;</text></symbol><symbol id="3"><text y="1.67" class="d">my-shell:&gt;</text><text x="10.02" y="1.67" class="e">component</text></symbol><symbol id="4"><text y="1.67" class="d">my-shell:&gt;</text><text x="10.02" y="1.67" class="f">component</text><text x="20.04" y="1.67" class="f">multi</text></symbol><symbol id="5"><text y="1.67" class="g">?</text><text x="2.004" y="1.67" class="h">testSimple</text><text x="13.026" y="1.67" class="c">[Use</text><text x="18.036" y="1.67" class="c">arrows</text><text x="25.05" y="1.67" class="c">to</text><text x="28.056" y="1.67" class="c">move],</text><text x="35.07" y="1.67" class="c">type</text><text x="40.08" y="1.67" class="c">to</text><text x="43.086" y="1.67" class="c">filter</text></symbol><symbol id="6"><text y="1.67" class="i">&gt;</text><text x="2.004" y="1.67" class="f">[</text><text x="4.008" y="1.67" class="f">]</text><text x="6.012" y="1.67" class="c">key1</text></symbol><symbol id="7"><text x="2.004" y="1.67" class="c">[</text><text x="4.008" y="1.67" class="c">]</text><text x="6.012" y="1.67" class="c">key2</text></symbol><symbol id="8"><text x="2.004" y="1.67" class="f">[</text><text x="4.008" y="1.67" class="f">]</text><text x="6.012" y="1.67" class="c">key3</text></symbol><symbol id="9"><text y="1.67" class="g">?</text><text x="2.004" y="1.67" class="h">testSimple</text><text x="13.026" y="1.67" class="c">[Use</text><text x="18.036" y="1.67" class="c">arrows</text><text x="25.05" y="1.67" class="c">to</text><text x="28.056" y="1.67" class="c">move],</text><text x="35.07" y="1.67" class="c">filtering</text><text x="45.09" y="1.67" class="c">&apos;k&apos;</text></symbol><symbol id="10"><text y="1.67" class="g">?</text><text x="2.004" y="1.67" class="h">testSimple</text><text x="13.026" y="1.67" class="c">[Use</text><text x="18.036" y="1.67" class="c">arrows</text><text x="25.05" y="1.67" class="c">to</text><text x="28.056" y="1.67" class="c">move],</text><text x="35.07" y="1.67" class="c">filtering</text><text x="45.09" y="1.67" class="c">&apos;ke&apos;</text></symbol><symbol id="11"><text y="1.67" class="g">?</text><text x="2.004" y="1.67" class="h">testSimple</text><text x="13.026" y="1.67" class="c">[Use</text><text x="18.036" y="1.67" class="c">arrows</text><text x="25.05" y="1.67" class="c">to</text><text x="28.056" y="1.67" class="c">move],</text><text x="35.07" y="1.67" class="c">filtering</text><text x="45.09" y="1.67" class="c">&apos;key&apos;</text></symbol><symbol id="12"><text x="2.004" y="1.67" class="j">[x]</text><text x="6.012" y="1.67" class="c">key1</text></symbol><symbol id="13"><text y="1.67" class="i">&gt;</text><text x="2.004" y="1.67" class="c">[</text><text x="4.008" y="1.67" class="c">]</text><text x="6.012" y="1.67" class="c">key2</text></symbol><symbol id="14"><text y="1.67" class="i">&gt;</text><text x="2.004" y="1.67" class="f">[</text><text x="4.008" y="1.67" class="f">]</text><text x="6.012" y="1.67" class="c">key3</text></symbol><symbol id="15"><text y="1.67" class="i">&gt;</text><text x="2.004" y="1.67" class="j">[x]</text><text x="6.012" y="1.67" class="c">key3</text></symbol><symbol id="16"><text y="1.67" class="g">?</text><text x="2.004" y="1.67" class="h">testSimple</text><text x="13.026" y="1.67" style="white-space:pre" fill="#71bef2">value1</text></symbol><symbol id="17"><text y="1.67" class="c">Got</text><text x="4.008" y="1.67" class="c">value</text><text x="10.02" y="1.67" class="c">value1</text></symbol><symbol id="a"><path fill="transparent" d="M0 0h85v9H0z"/></symbol><symbol id="b"><path fill="#6f7683" d="M0 0h1.102v2.171H0z"/></symbol></defs><path class="a" d="M0 0h85v19.539H0z"/><g style="animation-duration:26.649365s;animation-iteration-count:infinite;animation-name:n;animation-timing-function:steps(1,end)"><svg width="3570"><svg><use xlink:href="#a"/><use xlink:href="#b" x="-.004"/></svg><svg x="85"><use xlink:href="#a"/><use xlink:href="#b" x="76.996"/><use xlink:href="#1"/></svg><svg x="170"><use xlink:href="#a"/><use xlink:href="#b" x="-.004" y="2.146"/><use xlink:href="#1"/></svg><svg x="255"><use xlink:href="#a"/><use xlink:href="#b" x="9.996" y="2.146"/><use xlink:href="#1"/><use xlink:href="#2" y="2.171"/></svg><svg x="340"><use xlink:href="#a"/><use xlink:href="#b" x="10.996" y="2.146"/><use xlink:href="#1"/><text y="3.841" class="d">my-shell:&gt;</text><text x="10.02" y="3.841" class="e">c</text></svg><svg x="425"><use xlink:href="#a"/><use xlink:href="#b" x="11.996" y="2.146"/><use xlink:href="#1"/><text y="3.841" class="d">my-shell:&gt;</text><text x="10.02" y="3.841" class="e">co</text></svg><svg x="510"><use xlink:href="#a"/><use xlink:href="#b" x="12.996" y="2.146"/><use xlink:href="#1"/><text y="3.841" class="d">my-shell:&gt;</text><text x="10.02" y="3.841" class="e">com</text></svg><svg x="595"><use xlink:href="#a"/><use xlink:href="#b" x="13.996" y="2.146"/><use xlink:href="#1"/><text y="3.841" class="d">my-shell:&gt;</text><text x="10.02" y="3.841" class="e">comp</text></svg><svg x="680"><use xlink:href="#a"/><use xlink:href="#b" x="14.996" y="2.146"/><use xlink:href="#1"/><text y="3.841" class="d">my-shell:&gt;</text><text x="10.02" y="3.841" class="e">compo</text></svg><svg x="765"><use xlink:href="#a"/><use xlink:href="#b" x="15.996" y="2.146"/><use xlink:href="#1"/><text y="3.841" class="d">my-shell:&gt;</text><text x="10.02" y="3.841" class="e">compon</text></svg><svg x="850"><use xlink:href="#a"/><use xlink:href="#b" x="16.996" y="2.146"/><use xlink:href="#1"/><text y="3.841" class="d">my-shell:&gt;</text><text x="10.02" y="3.841" class="e">compone</text></svg><svg x="935"><use xlink:href="#a"/><use xlink:href="#b" x="17.996" y="2.146"/><use xlink:href="#1"/><text y="3.841" class="d">my-shell:&gt;</text><text x="10.02" y="3.841" class="e">componen</text></svg><svg x="1020"><use xlink:href="#a"/><use xlink:href="#b" x="18.996" y="2.146"/><use xlink:href="#1"/><use xlink:href="#3" y="2.171"/></svg><svg x="1105"><use xlink:href="#a"/><use xlink:href="#b" x="19.996" y="2.146"/><use xlink:href="#1"/><use xlink:href="#3" y="2.171"/></svg><svg x="1190"><use xlink:href="#a"/><use xlink:href="#b" x="20.996" y="2.146"/><use xlink:href="#1"/><text y="3.841" class="d">my-shell:&gt;</text><text x="10.02" y="3.841" class="e">component</text><text x="20.04" y="3.841" class="e">m</text></svg><svg x="1275"><use xlink:href="#a"/><use xlink:href="#b" x="21.996" y="2.146"/><use xlink:href="#1"/><text y="3.841" class="d">my-shell:&gt;</text><text x="10.02" y="3.841" class="e">component</text><text x="20.04" y="3.841" class="e">mu</text></svg><svg x="1360"><use xlink:href="#a"/><use xlink:href="#b" x="25.996" y="2.146"/><use xlink:href="#1"/><use xlink:href="#4" y="2.171"/></svg><svg x="1445"><use xlink:href="#a"/><use xlink:href="#b" x="-.004" y="4.317"/><use xlink:href="#1"/><use xlink:href="#4" y="2.171"/></svg><svg x="1530"><use xlink:href="#a"/><use xlink:href="#1"/><use xlink:href="#4" y="2.171"/></svg><svg x="1615"><use xlink:href="#a"/><use xlink:href="#1"/><use xlink:href="#4" y="2.171"/><use xlink:href="#5" y="4.342"/><use xlink:href="#6" y="6.513"/><use xlink:href="#7" y="8.684"/><use xlink:href="#8" y="10.855"/></svg><svg x="1700"><use xlink:href="#a"/><use xlink:href="#1"/><use xlink:href="#4" y="2.171"/><use xlink:href="#9" y="4.342"/><use xlink:href="#6" y="6.513"/><use xlink:href="#7" y="8.684"/><use xlink:href="#8" y="10.855"/></svg><svg x="1785"><use xlink:href="#a"/><use xlink:href="#1"/><use xlink:href="#4" y="2.171"/><use xlink:href="#10" y="4.342"/><use xlink:href="#6" y="6.513"/><use xlink:href="#7" y="8.684"/><use xlink:href="#8" y="10.855"/></svg><svg x="1870"><use xlink:href="#a"/><use xlink:href="#1"/><use xlink:href="#4" y="2.171"/><use xlink:href="#11" y="4.342"/><use xlink:href="#6" y="6.513"/><use xlink:href="#7" y="8.684"/><use xlink:href="#8" y="10.855"/></svg><svg x="1955"><use xlink:href="#a"/><use xlink:href="#1"/><use xlink:href="#4" y="2.171"/><text y="6.012" class="g">?</text><text x="2.004" y="6.012" class="h">testSimple</text><text x="13.026" y="6.012" class="c">[Use</text><text x="18.036" y="6.012" class="c">arrows</text><text x="25.05" y="6.012" class="c">to</text><text x="28.056" y="6.012" class="c">move],</text><text x="35.07" y="6.012" class="c">filtering</text><text x="45.09" y="6.012" class="c">&apos;key1&apos;</text><use xlink:href="#6" y="6.513"/></svg><svg x="2040"><use xlink:href="#a"/><use xlink:href="#1"/><use xlink:href="#4" y="2.171"/><use xlink:href="#11" y="4.342"/><use xlink:href="#6" y="6.513"/><use xlink:href="#7" y="8.684"/><use xlink:href="#8" y="10.855"/></svg><svg x="2125"><use xlink:href="#a"/><use xlink:href="#1"/><use xlink:href="#4" y="2.171"/><use xlink:href="#10" y="4.342"/><use xlink:href="#6" y="6.513"/><use xlink:href="#7" y="8.684"/><use xlink:href="#8" y="10.855"/></svg><svg x="2210"><use xlink:href="#a"/><use xlink:href="#1"/><use xlink:href="#4" y="2.171"/><use xlink:href="#9" y="4.342"/><use xlink:href="#6" y="6.513"/><use xlink:href="#7" y="8.684"/><use xlink:href="#8" y="10.855"/></svg><svg x="2295"><use xlink:href="#a"/><use xlink:href="#1"/><use xlink:href="#4" y="2.171"/><use xlink:href="#5" y="4.342"/><use xlink:href="#6" y="6.513"/><use xlink:href="#7" y="8.684"/><use xlink:href="#8" y="10.855"/></svg><svg x="2380"><use xlink:href="#a"/><use xlink:href="#1"/><use xlink:href="#4" y="2.171"/><use xlink:href="#5" y="4.342"/><text y="8.183" class="i">&gt;</text><text x="2.004" y="8.183" class="j">[x]</text><text x="6.012" y="8.183" class="c">key1</text><use xlink:href="#7" y="8.684"/><use xlink:href="#8" y="10.855"/></svg><svg x="2465"><use xlink:href="#a"/><use xlink:href="#1"/><use xlink:href="#4" y="2.171"/><use xlink:href="#5" y="4.342"/><use xlink:href="#12" y="6.513"/><use xlink:href="#13" y="8.684"/><use xlink:href="#8" y="10.855"/></svg><svg x="2550"><use xlink:href="#a"/><use xlink:href="#1"/><use xlink:href="#4" y="2.171"/><use xlink:href="#5" y="4.342"/><use xlink:href="#12" y="6.513"/><use xlink:href="#7" y="8.684"/><use xlink:href="#14" y="10.855"/></svg><svg x="2635"><use xlink:href="#a"/><use xlink:href="#1"/><use xlink:href="#4" y="2.171"/><use xlink:href="#5" y="4.342"/><use xlink:href="#12" y="6.513"/><use xlink:href="#7" y="8.684"/><use xlink:href="#15" y="10.855"/></svg><svg x="2720"><use xlink:href="#a"/><use xlink:href="#1"/><use xlink:href="#4" y="2.171"/><use xlink:href="#5" y="4.342"/><use xlink:href="#12" y="6.513"/><use xlink:href="#7" y="8.684"/><use xlink:href="#14" y="10.855"/></svg><svg x="2805"><use xlink:href="#a"/><use xlink:href="#1"/><use xlink:href="#4" y="2.171"/><use xlink:href="#5" y="4.342"/><use xlink:href="#12" y="6.513"/><use xlink:href="#13" y="8.684"/><use xlink:href="#8" y="10.855"/></svg><svg x="2890"><use xlink:href="#a"/><use xlink:href="#1"/><use xlink:href="#4" y="2.171"/><use xlink:href="#5" y="4.342"/><use xlink:href="#12" y="6.513"/><use xlink:href="#7" y="8.684"/><use xlink:href="#14" y="10.855"/></svg><svg x="2975"><use xlink:href="#a"/><use xlink:href="#1"/><use xlink:href="#4" y="2.171"/><use xlink:href="#5" y="4.342"/><use xlink:href="#12" y="6.513"/><use xlink:href="#7" y="8.684"/><use xlink:href="#15" y="10.855"/></svg><svg x="3060"><use xlink:href="#a"/><use xlink:href="#1"/><use xlink:href="#4" y="2.171"/><use xlink:href="#5" y="4.342"/><use xlink:href="#12" y="6.513"/><use xlink:href="#7" y="8.684"/><use xlink:href="#14" y="10.855"/></svg><svg x="3145"><use xlink:href="#a"/><use xlink:href="#b" x="-.004" y="4.317"/><use xlink:href="#1"/><use xlink:href="#4" y="2.171"/></svg><svg x="3230"><use xlink:href="#a"/><use xlink:href="#b" x="-.004" y="6.488"/><use xlink:href="#1"/><use xlink:href="#4" y="2.171"/><use xlink:href="#16" y="4.342"/></svg><svg x="3315"><use xlink:href="#a"/><use xlink:href="#b" x="-.004" y="8.659"/><use xlink:href="#1"/><use xlink:href="#4" y="2.171"/><use xlink:href="#16" y="4.342"/><use xlink:href="#17" y="6.513"/></svg><svg x="3400"><use xlink:href="#a"/><use xlink:href="#b" x="9.996" y="8.659"/><use xlink:href="#1"/><use xlink:href="#4" y="2.171"/><use xlink:href="#16" y="4.342"/><use xlink:href="#17" y="6.513"/><use xlink:href="#2" y="8.684"/></svg><svg x="3485"><use xlink:href="#a"/><use xlink:href="#b" x="19.996" y="8.659"/><use xlink:href="#1"/><use xlink:href="#4" y="2.171"/><use xlink:href="#16" y="4.342"/><use xlink:href="#17" y="6.513"/><text y="10.354" class="d">my-shell:&gt;my-shell:&gt;</text></svg></svg></g></g></svg></svg>