<svg xmlns="http://www.w3.org/2000/svg" xmlns:xlink="http://www.w3.org/1999/xlink" width="1200" height="195.39"><rect width="1200" height="195.39" rx="0" ry="0" class="a"/><svg height="195.39" viewBox="0 0 120 19.539" width="1200" xmlns="http://www.w3.org/2000/svg" xmlns:xlink="http://www.w3.org/1999/xlink"><style>@keyframes l{0%{transform:translateX(0)}6.9%{transform:translateX(-120px)}11%{transform:translateX(-240px)}28.2%{transform:translateX(-360px)}28.3%{transform:translateX(-480px)}34.9%{transform:translateX(-600px)}35%{transform:translateX(-720px)}36.6%{transform:translateX(-840px)}36.7%{transform:translateX(-960px)}37.4%{transform:translateX(-1080px)}37.5%{transform:translateX(-1200px)}39.3%{transform:translateX(-1320px)}39.4%{transform:translateX(-1440px)}39.7%{transform:translateX(-1560px)}39.8%{transform:translateX(-1680px)}41.8%{transform:translateX(-1800px)}41.9%{transform:translateX(-1920px)}42.9%{transform:translateX(-2040px)}43%{transform:translateX(-2160px)}43.8%{transform:translateX(-2280px)}43.9%{transform:translateX(-2400px)}44.8%{transform:translateX(-2520px)}44.9%{transform:translateX(-2640px)}45.3%{transform:translateX(-2760px)}45.4%{transform:translateX(-2880px)}46.4%{transform:translateX(-3000px)}46.5%{transform:translateX(-3120px)}48.1%{transform:translateX(-3240px)}48.2%{transform:translateX(-3360px)}51%{transform:translateX(-3480px)}51.1%{transform:translateX(-3600px)}52.5%{transform:translateX(-3840px)}53.4%{transform:translateX(-3960px)}53.5%{transform:translateX(-4080px)}54.6%{transform:translateX(-4200px)}54.7%{transform:translateX(-4320px)}55.2%{transform:translateX(-4440px)}56.3%{transform:translateX(-4560px)}56.9%{transform:translateX(-4680px)}57.3%{transform:translateX(-4800px)}58.8%{transform:translateX(-4920px)}60%{transform:translateX(-5040px)}60.8%{transform:translateX(-5160px)}60.9%{transform:translateX(-5280px)}62.2%{transform:translateX(-5400px)}62.3%{transform:translateX(-5520px)}62.7%{transform:translateX(-5640px)}63.1%{transform:translateX(-5760px)}63.2%{transform:translateX(-5880px)}79.7%{transform:translateX(-6000px)}82%{transform:translateX(-6120px)}85%{transform:translateX(-6240px)}90.2%{transform:translateX(-6360px)}to{transform:translateX(-6480px)}}.a{fill:#282d35}.c,.e,.f{fill:#dbab79;white-space:pre}.e,.f{fill:#b9c0cb}.f{fill:#e88388}.g{fill:#fff;font-weight:700}.g,.h,.i{white-space:pre}.h{fill:#a8cc8c;font-weight:700}.i{fill:#71bef2}</style><g font-family="Monaco,Consolas,Menlo,'Bitstream Vera Sans Mono','Powerline Symbols',monospace" font-size="1.67"><defs><symbol id="1"><text y="1.67" class="c">java</text><text x="5.01" y="1.67" style="white-space:pre" fill="#6f7783">-jar</text><text x="10.02" y="1.67" class="e">spring-shell-samples/target/spring-shell-samples-2.1.13-SNAPSHOT.jar</text></symbol><symbol id="2"><text y="1.67" class="c">my-shell:&gt;</text></symbol><symbol id="3"><text y="1.67" class="c">my-shell:&gt;</text><text x="10.02" y="1.67" class="f">c</text></symbol><symbol id="4"><text y="1.67" class="c">my-shell:&gt;</text><text x="10.02" y="1.67" class="f">co</text></symbol><symbol id="5"><text y="1.67" class="c">my-shell:&gt;</text><text x="10.02" y="1.67" class="f">com</text></symbol><symbol id="6"><text y="1.67" class="c">my-shell:&gt;</text><text x="10.02" y="1.67" class="f">comp</text></symbol><symbol id="7"><text y="1.67" class="c">my-shell:&gt;</text><text x="10.02" y="1.67" class="f">compo</text></symbol><symbol id="8"><text y="1.67" class="c">my-shell:&gt;</text><text x="10.02" y="1.67" class="f">compon</text></symbol><symbol id="9"><text y="1.67" class="c">my-shell:&gt;</text><text x="10.02" y="1.67" class="f">compone</text></symbol><symbol id="10"><text y="1.67" class="c">my-shell:&gt;</text><text x="10.02" y="1.67" class="f">componen</text></symbol><symbol id="11"><text y="1.67" class="c">my-shell:&gt;</text><text x="10.02" y="1.67" class="f">component</text></symbol><symbol id="12"><text y="1.67" class="c">my-shell:&gt;</text><text x="10.02" y="1.67" class="f">component</text><text x="20.04" y="1.67" class="f">n</text></symbol><symbol id="13"><text y="1.67" class="c">my-shell:&gt;</text><text x="10.02" y="1.67" class="f">component</text><text x="20.04" y="1.67" class="f">nu</text></symbol><symbol id="14"><text y="1.67" class="c">my-shell:&gt;</text><text x="10.02" y="1.67" class="f">component</text><text x="20.04" y="1.67" class="f">num</text></symbol><symbol id="15"><text y="1.67" class="c">my-shell:&gt;</text><text x="10.02" y="1.67" class="f">component</text><text x="20.04" y="1.67" class="f">numb</text></symbol><symbol id="16"><text y="1.67" class="c">my-shell:&gt;</text><text x="10.02" y="1.67" class="f">component</text><text x="20.04" y="1.67" class="f">numbe</text></symbol><symbol id="17"><text y="1.67" class="c">my-shell:&gt;</text><text x="10.02" y="1.67" class="g">component</text><text x="20.04" y="1.67" class="g">number</text></symbol><symbol id="18"><text y="1.67" class="c">my-shell:&gt;</text><text x="10.02" y="1.67" class="g">component</text><text x="20.04" y="1.67" class="g">number</text><text x="27.054" y="1.67" class="e">doubl</text></symbol><symbol id="19"><text y="1.67" class="c">my-shell:&gt;</text><text x="10.02" y="1.67" class="g">component</text><text x="20.04" y="1.67" class="g">number</text><text x="27.054" y="1.67" class="g">double</text></symbol><symbol id="20"><text y="1.67" class="h">?</text><text x="2.004" y="1.67" class="g">Enter</text><text x="8.016" y="1.67" class="g">value</text><text x="14.028" y="1.67" class="i">[Number</text><text x="22.044" y="1.67" class="i">Type:</text><text x="28.056" y="1.67" class="i">Double][Default</text><text x="44.088" y="1.67" class="e">99.9</text><text x="48.096" y="1.67" class="i">]</text></symbol><symbol id="21"><text y="1.67" class="h">?</text><text x="2.004" y="1.67" class="g">Enter</text><text x="8.016" y="1.67" class="g">value</text><text x="14.028" y="1.67" class="i">5.5</text></symbol><symbol id="22"><text y="1.67" class="e">Got</text><text x="4.008" y="1.67" class="e">value</text><text x="10.02" y="1.67" class="e">5.5</text></symbol><symbol id="a"><path fill="transparent" d="M0 0h120v9H0z"/></symbol><symbol id="b"><path fill="#6f7683" d="M0 0h1.102v2.171H0z"/></symbol></defs><path class="a" d="M0 0h120v19.539H0z"/><g style="animation-duration:15.966568946838379s;animation-iteration-count:infinite;animation-name:l;animation-timing-function:steps(1,end)"><svg width="6600"><svg><use xlink:href="#a"/><use xlink:href="#b" x="-.004"/></svg><svg x="120"><use xlink:href="#a"/><use xlink:href="#b" x="77.996"/><use xlink:href="#1"/></svg><svg x="240"><use xlink:href="#a"/><use xlink:href="#b" x="-.004" y="2.146"/><use xlink:href="#1"/></svg><svg x="360"><use xlink:href="#a"/><use xlink:href="#b" x="9.996" y="2.146"/><use xlink:href="#1"/><use xlink:href="#2" y="2.171"/></svg><svg x="480"><use xlink:href="#a"/><use xlink:href="#b" x="9.996" y="2.146"/><use xlink:href="#1"/><use xlink:href="#2" y="2.171"/></svg><svg x="600"><use xlink:href="#a"/><use xlink:href="#b" x="10.996" y="2.146"/><use xlink:href="#1"/><use xlink:href="#3" y="2.171"/></svg><svg x="720"><use xlink:href="#a"/><use xlink:href="#b" x="10.996" y="2.146"/><use xlink:href="#1"/><use xlink:href="#3" y="2.171"/></svg><svg x="840"><use xlink:href="#a"/><use xlink:href="#b" x="11.996" y="2.146"/><use xlink:href="#1"/><use xlink:href="#4" y="2.171"/></svg><svg x="960"><use xlink:href="#a"/><use xlink:href="#b" x="11.996" y="2.146"/><use xlink:href="#1"/><use xlink:href="#4" y="2.171"/></svg><svg x="1080"><use xlink:href="#a"/><use xlink:href="#b" x="12.996" y="2.146"/><use xlink:href="#1"/><use xlink:href="#5" y="2.171"/></svg><svg x="1200"><use xlink:href="#a"/><use xlink:href="#b" x="12.996" y="2.146"/><use xlink:href="#1"/><use xlink:href="#5" y="2.171"/></svg><svg x="1320"><use xlink:href="#a"/><use xlink:href="#b" x="13.996" y="2.146"/><use xlink:href="#1"/><use xlink:href="#6" y="2.171"/></svg><svg x="1440"><use xlink:href="#a"/><use xlink:href="#b" x="13.996" y="2.146"/><use xlink:href="#1"/><use xlink:href="#6" y="2.171"/></svg><svg x="1560"><use xlink:href="#a"/><use xlink:href="#b" x="14.996" y="2.146"/><use xlink:href="#1"/><use xlink:href="#7" y="2.171"/></svg><svg x="1680"><use xlink:href="#a"/><use xlink:href="#b" x="14.996" y="2.146"/><use xlink:href="#1"/><use xlink:href="#7" y="2.171"/></svg><svg x="1800"><use xlink:href="#a"/><use xlink:href="#b" x="15.996" y="2.146"/><use xlink:href="#1"/><use xlink:href="#8" y="2.171"/></svg><svg x="1920"><use xlink:href="#a"/><use xlink:href="#b" x="15.996" y="2.146"/><use xlink:href="#1"/><use xlink:href="#8" y="2.171"/></svg><svg x="2040"><use xlink:href="#a"/><use xlink:href="#b" x="16.996" y="2.146"/><use xlink:href="#1"/><use xlink:href="#9" y="2.171"/></svg><svg x="2160"><use xlink:href="#a"/><use xlink:href="#b" x="16.996" y="2.146"/><use xlink:href="#1"/><use xlink:href="#9" y="2.171"/></svg><svg x="2280"><use xlink:href="#a"/><use xlink:href="#b" x="17.996" y="2.146"/><use xlink:href="#1"/><use xlink:href="#10" y="2.171"/></svg><svg x="2400"><use xlink:href="#a"/><use xlink:href="#b" x="17.996" y="2.146"/><use xlink:href="#1"/><use xlink:href="#10" y="2.171"/></svg><svg x="2520"><use xlink:href="#a"/><use xlink:href="#b" x="18.996" y="2.146"/><use xlink:href="#1"/><use xlink:href="#11" y="2.171"/></svg><svg x="2640"><use xlink:href="#a"/><use xlink:href="#b" x="18.996" y="2.146"/><use xlink:href="#1"/><use xlink:href="#11" y="2.171"/></svg><svg x="2760"><use xlink:href="#a"/><use xlink:href="#b" x="19.996" y="2.146"/><use xlink:href="#1"/><use xlink:href="#11" y="2.171"/></svg><svg x="2880"><use xlink:href="#a"/><use xlink:href="#b" x="19.996" y="2.146"/><use xlink:href="#1"/><use xlink:href="#11" y="2.171"/></svg><svg x="3000"><use xlink:href="#a"/><use xlink:href="#b" x="20.996" y="2.146"/><use xlink:href="#1"/><use xlink:href="#12" y="2.171"/></svg><svg x="3120"><use xlink:href="#a"/><use xlink:href="#b" x="20.996" y="2.146"/><use xlink:href="#1"/><use xlink:href="#12" y="2.171"/></svg><svg x="3240"><use xlink:href="#a"/><use xlink:href="#b" x="21.996" y="2.146"/><use xlink:href="#1"/><use xlink:href="#13" y="2.171"/></svg><svg x="3360"><use xlink:href="#a"/><use xlink:href="#b" x="21.996" y="2.146"/><use xlink:href="#1"/><use xlink:href="#13" y="2.171"/></svg><svg x="3480"><use xlink:href="#a"/><use xlink:href="#b" x="22.996" y="2.146"/><use xlink:href="#1"/><use xlink:href="#14" y="2.171"/></svg><svg x="3600"><use xlink:href="#a"/><use xlink:href="#b" x="22.996" y="2.146"/><use xlink:href="#1"/><use xlink:href="#14" y="2.171"/></svg><svg x="3720"><use xlink:href="#a"/><use xlink:href="#b" x="23.996" y="2.146"/><use xlink:href="#1"/><use xlink:href="#15" y="2.171"/></svg><svg x="3840"><use xlink:href="#a"/><use xlink:href="#b" x="23.996" y="2.146"/><use xlink:href="#1"/><use xlink:href="#15" y="2.171"/></svg><svg x="3960"><use xlink:href="#a"/><use xlink:href="#b" x="24.996" y="2.146"/><use xlink:href="#1"/><use xlink:href="#16" y="2.171"/></svg><svg x="4080"><use xlink:href="#a"/><use xlink:href="#b" x="24.996" y="2.146"/><use xlink:href="#1"/><use xlink:href="#16" y="2.171"/></svg><svg x="4200"><use xlink:href="#a"/><use xlink:href="#b" x="9.996" y="2.146"/><use xlink:href="#1"/><use xlink:href="#16" y="2.171"/></svg><svg x="4320"><use xlink:href="#a"/><use xlink:href="#b" x="25.996" y="2.146"/><use xlink:href="#1"/><use xlink:href="#17" y="2.171"/></svg><svg x="4440"><use xlink:href="#a"/><use xlink:href="#b" x="26.996" y="2.146"/><use xlink:href="#1"/><use xlink:href="#17" y="2.171"/></svg><svg x="4560"><use xlink:href="#a"/><use xlink:href="#b" x="27.996" y="2.146"/><use xlink:href="#1"/><text y="3.841" class="c">my-shell:&gt;</text><text x="10.02" y="3.841" class="g">component</text><text x="20.04" y="3.841" class="g">number</text><text x="27.054" y="3.841" class="e">d</text></svg><svg x="4680"><use xlink:href="#a"/><use xlink:href="#b" x="28.996" y="2.146"/><use xlink:href="#1"/><text y="3.841" class="c">my-shell:&gt;</text><text x="10.02" y="3.841" class="g">component</text><text x="20.04" y="3.841" class="g">number</text><text x="27.054" y="3.841" class="e">do</text></svg><svg x="4800"><use xlink:href="#a"/><use xlink:href="#b" x="29.996" y="2.146"/><use xlink:href="#1"/><text y="3.841" class="c">my-shell:&gt;</text><text x="10.02" y="3.841" class="g">component</text><text x="20.04" y="3.841" class="g">number</text><text x="27.054" y="3.841" class="e">dou</text></svg><svg x="4920"><use xlink:href="#a"/><use xlink:href="#b" x="30.996" y="2.146"/><use xlink:href="#1"/><text y="3.841" class="c">my-shell:&gt;</text><text x="10.02" y="3.841" class="g">component</text><text x="20.04" y="3.841" class="g">number</text><text x="27.054" y="3.841" class="e">doub</text></svg><svg x="5040"><use xlink:href="#a"/><use xlink:href="#b" x="31.996" y="2.146"/><use xlink:href="#1"/><use xlink:href="#18" y="2.171"/></svg><svg x="5160"><use xlink:href="#a"/><use xlink:href="#b" x="25.996" y="2.146"/><use xlink:href="#1"/><use xlink:href="#18" y="2.171"/></svg><svg x="5280"><use xlink:href="#a"/><use xlink:href="#b" x="32.996" y="2.146"/><use xlink:href="#1"/><use xlink:href="#19" y="2.171"/></svg><svg x="5400"><use xlink:href="#a"/><use xlink:href="#b" x="-.004" y="2.146"/><use xlink:href="#1"/><use xlink:href="#19" y="2.171"/></svg><svg x="5520"><use xlink:href="#a"/><use xlink:href="#b" x="-.004" y="4.317"/><use xlink:href="#1"/><use xlink:href="#19" y="2.171"/></svg><svg x="5640"><use xlink:href="#a"/><use xlink:href="#1"/><use xlink:href="#19" y="2.171"/></svg><svg x="5760"><use xlink:href="#a"/><use xlink:href="#1"/><use xlink:href="#19" y="2.171"/><use xlink:href="#20" y="4.342"/></svg><svg x="5880"><use xlink:href="#a"/><use xlink:href="#1"/><use xlink:href="#19" y="2.171"/><use xlink:href="#20" y="4.342"/></svg><svg x="6000"><use xlink:href="#a"/><use xlink:href="#1"/><use xlink:href="#19" y="2.171"/><text y="6.012" class="h">?</text><text x="2.004" y="6.012" class="g">Enter</text><text x="8.016" y="6.012" class="g">value</text><text x="14.028" y="6.012" class="e">5</text></svg><svg x="6120"><use xlink:href="#a"/><use xlink:href="#1"/><use xlink:href="#19" y="2.171"/><text y="6.012" class="h">?</text><text x="2.004" y="6.012" class="g">Enter</text><text x="8.016" y="6.012" class="g">value</text><text x="14.028" y="6.012" class="e">5.</text></svg><svg x="6240"><use xlink:href="#a"/><use xlink:href="#1"/><use xlink:href="#19" y="2.171"/><text y="6.012" class="h">?</text><text x="2.004" y="6.012" class="g">Enter</text><text x="8.016" y="6.012" class="g">value</text><text x="14.028" y="6.012" class="e">5.5</text></svg><svg x="6360"><use xlink:href="#a"/><use xlink:href="#b" x="9.996" y="8.659"/><use xlink:href="#1"/><use xlink:href="#19" y="2.171"/><use xlink:href="#21" y="4.342"/><use xlink:href="#22" y="6.513"/><use xlink:href="#2" y="8.684"/></svg><svg x="6480"><use xlink:href="#a"/><use xlink:href="#b" x="9.996" y="8.659"/><use xlink:href="#1"/><use xlink:href="#19" y="2.171"/><use xlink:href="#21" y="4.342"/><use xlink:href="#22" y="6.513"/><use xlink:href="#2" y="8.684"/></svg></svg></g></g></svg></svg>