<svg xmlns="http://www.w3.org/2000/svg" xmlns:xlink="http://www.w3.org/1999/xlink" width="850" height="130.26"><rect width="850" height="130.26" rx="0" ry="0" class="a"/><svg height="130.26" viewBox="0 0 85 13.026" width="850" xmlns="http://www.w3.org/2000/svg" xmlns:xlink="http://www.w3.org/1999/xlink"><style>@keyframes l{0%{transform:translateX(0)}9.6%{transform:translateX(-85px)}15.6%{transform:translateX(-170px)}29.4%{transform:translateX(-255px)}36%{transform:translateX(-340px)}36.8%{transform:translateX(-425px)}38.3%{transform:translateX(-510px)}43.5%{transform:translateX(-595px)}44.3%{transform:translateX(-680px)}49.1%{transform:translateX(-765px)}50.8%{transform:translateX(-850px)}51.6%{transform:translateX(-935px)}55.7%{transform:translateX(-1020px)}56.6%{transform:translateX(-1105px)}58.1%{transform:translateX(-1190px)}59.4%{transform:translateX(-1275px)}60.5%{transform:translateX(-1360px)}60.9%{transform:translateX(-1445px)}61.5%{transform:translateX(-1530px)}62.2%{transform:translateX(-1615px)}67.9%{transform:translateX(-1700px)}68.3%{transform:translateX(-1785px)}68.8%{transform:translateX(-1870px)}78.7%{transform:translateX(-1955px)}80.4%{transform:translateX(-2040px)}84.6%{transform:translateX(-2125px)}84.7%{transform:translateX(-2380px)}to{transform:translateX(-2465px)}}.a{fill:#282d35}.c,.d,.e{fill:#b9c0cb;white-space:pre}.d,.e{fill:#dbab79}.e{fill:#e88388}.f,.g{font-weight:700}.f{fill:#b9c0cb;white-space:pre}.g{fill:#a8cc8c}.g,.h,.i{white-space:pre}.h{fill:#fff;font-weight:700}.i{fill:#71bef2}</style><g font-family="Monaco,Consolas,Menlo,'Bitstream Vera Sans Mono','Powerline Symbols',monospace" font-size="1.67"><defs><symbol id="1"><text y="1.67" class="c">java</text><text x="5.01" y="1.67" class="c">-jar</text><text x="10.02" y="1.67" class="c">spring-shell-samples/target/spring-shell-samples-2.1.0-SNAPSHOT.jar</text></symbol><symbol id="2"><text y="1.67" class="d">my-shell:&gt;</text></symbol><symbol id="3"><text y="1.67" class="d">my-shell:&gt;</text><text x="10.02" y="1.67" class="e">component</text></symbol><symbol id="4"><text y="1.67" class="d">my-shell:&gt;</text><text x="10.02" y="1.67" class="f">component</text><text x="20.04" y="1.67" class="f">string</text></symbol><symbol id="5"><text y="1.67" class="g">?</text><text x="2.004" y="1.67" class="h">Enter</text><text x="8.016" y="1.67" class="h">value</text><text x="14.028" y="1.67" class="i">hi</text></symbol><symbol id="6"><text y="1.67" class="c">Got</text><text x="4.008" y="1.67" class="c">value</text><text x="10.02" y="1.67" class="c">hi</text></symbol><symbol id="a"><path fill="transparent" d="M0 0h85v6H0z"/></symbol><symbol id="b"><path fill="#6f7683" d="M0 0h1.102v2.171H0z"/></symbol></defs><path class="a" d="M0 0h85v13.026H0z"/><g style="animation-duration:13.100226s;animation-iteration-count:infinite;animation-name:l;animation-timing-function:steps(1,end)"><svg width="2550"><svg><use xlink:href="#a"/><use xlink:href="#b" x="-.004"/></svg><svg x="85"><use xlink:href="#a"/><use xlink:href="#b" x="76.996"/><use xlink:href="#1"/></svg><svg x="170"><use xlink:href="#a"/><use xlink:href="#b" x="-.004" y="2.146"/><use xlink:href="#1"/></svg><svg x="255"><use xlink:href="#a"/><use xlink:href="#b" x="9.996" y="2.146"/><use xlink:href="#1"/><use xlink:href="#2" y="2.171"/></svg><svg x="340"><use xlink:href="#a"/><use xlink:href="#b" x="10.996" y="2.146"/><use xlink:href="#1"/><text y="3.841" class="d">my-shell:&gt;</text><text x="10.02" y="3.841" class="e">c</text></svg><svg x="425"><use xlink:href="#a"/><use xlink:href="#b" x="11.996" y="2.146"/><use xlink:href="#1"/><text y="3.841" class="d">my-shell:&gt;</text><text x="10.02" y="3.841" class="e">co</text></svg><svg x="510"><use xlink:href="#a"/><use xlink:href="#b" x="12.996" y="2.146"/><use xlink:href="#1"/><text y="3.841" class="d">my-shell:&gt;</text><text x="10.02" y="3.841" class="e">com</text></svg><svg x="595"><use xlink:href="#a"/><use xlink:href="#b" x="13.996" y="2.146"/><use xlink:href="#1"/><text y="3.841" class="d">my-shell:&gt;</text><text x="10.02" y="3.841" class="e">comp</text></svg><svg x="680"><use xlink:href="#a"/><use xlink:href="#b" x="14.996" y="2.146"/><use xlink:href="#1"/><text y="3.841" class="d">my-shell:&gt;</text><text x="10.02" y="3.841" class="e">compo</text></svg><svg x="765"><use xlink:href="#a"/><use xlink:href="#b" x="15.996" y="2.146"/><use xlink:href="#1"/><text y="3.841" class="d">my-shell:&gt;</text><text x="10.02" y="3.841" class="e">compon</text></svg><svg x="850"><use xlink:href="#a"/><use xlink:href="#b" x="16.996" y="2.146"/><use xlink:href="#1"/><text y="3.841" class="d">my-shell:&gt;</text><text x="10.02" y="3.841" class="e">compone</text></svg><svg x="935"><use xlink:href="#a"/><use xlink:href="#b" x="17.996" y="2.146"/><use xlink:href="#1"/><text y="3.841" class="d">my-shell:&gt;</text><text x="10.02" y="3.841" class="e">componen</text></svg><svg x="1020"><use xlink:href="#a"/><use xlink:href="#b" x="18.996" y="2.146"/><use xlink:href="#1"/><use xlink:href="#3" y="2.171"/></svg><svg x="1105"><use xlink:href="#a"/><use xlink:href="#b" x="19.996" y="2.146"/><use xlink:href="#1"/><use xlink:href="#3" y="2.171"/></svg><svg x="1190"><use xlink:href="#a"/><use xlink:href="#b" x="20.996" y="2.146"/><use xlink:href="#1"/><text y="3.841" class="d">my-shell:&gt;</text><text x="10.02" y="3.841" class="e">component</text><text x="20.04" y="3.841" class="e">s</text></svg><svg x="1275"><use xlink:href="#a"/><use xlink:href="#b" x="21.996" y="2.146"/><use xlink:href="#1"/><text y="3.841" class="d">my-shell:&gt;</text><text x="10.02" y="3.841" class="e">component</text><text x="20.04" y="3.841" class="e">st</text></svg><svg x="1360"><use xlink:href="#a"/><use xlink:href="#b" x="22.996" y="2.146"/><use xlink:href="#1"/><text y="3.841" class="d">my-shell:&gt;</text><text x="10.02" y="3.841" class="e">component</text><text x="20.04" y="3.841" class="e">str</text></svg><svg x="1445"><use xlink:href="#a"/><use xlink:href="#b" x="23.996" y="2.146"/><use xlink:href="#1"/><text y="3.841" class="d">my-shell:&gt;</text><text x="10.02" y="3.841" class="e">component</text><text x="20.04" y="3.841" class="e">stri</text></svg><svg x="1530"><use xlink:href="#a"/><use xlink:href="#b" x="24.996" y="2.146"/><use xlink:href="#1"/><text y="3.841" class="d">my-shell:&gt;</text><text x="10.02" y="3.841" class="e">component</text><text x="20.04" y="3.841" class="e">strin</text></svg><svg x="1615"><use xlink:href="#a"/><use xlink:href="#b" x="25.996" y="2.146"/><use xlink:href="#1"/><use xlink:href="#4" y="2.171"/></svg><svg x="1700"><use xlink:href="#a"/><use xlink:href="#b" x="-.004" y="4.317"/><use xlink:href="#1"/><use xlink:href="#4" y="2.171"/></svg><svg x="1785"><use xlink:href="#a"/><use xlink:href="#1"/><use xlink:href="#4" y="2.171"/></svg><svg x="1870"><use xlink:href="#a"/><use xlink:href="#1"/><use xlink:href="#4" y="2.171"/><text y="6.012" class="g">?</text><text x="2.004" y="6.012" class="h">Enter</text><text x="8.016" y="6.012" class="h">value</text><text x="14.028" y="6.012" class="i">[Default</text><text x="23.046" y="6.012" class="i">myvalue]</text></svg><svg x="1955"><use xlink:href="#a"/><use xlink:href="#1"/><use xlink:href="#4" y="2.171"/><text y="6.012" class="g">?</text><text x="2.004" y="6.012" class="h">Enter</text><text x="8.016" y="6.012" class="h">value</text><text x="14.028" y="6.012" class="c">h</text></svg><svg x="2040"><use xlink:href="#a"/><use xlink:href="#1"/><use xlink:href="#4" y="2.171"/><text y="6.012" class="g">?</text><text x="2.004" y="6.012" class="h">Enter</text><text x="8.016" y="6.012" class="h">value</text><text x="14.028" y="6.012" class="c">hi</text></svg><svg x="2125"><use xlink:href="#a"/><use xlink:href="#b" x="-.004" y="4.317"/><use xlink:href="#1"/><use xlink:href="#4" y="2.171"/></svg><svg x="2210"><use xlink:href="#a"/><use xlink:href="#b" x="-.004" y="6.488"/><use xlink:href="#1"/><use xlink:href="#4" y="2.171"/><use xlink:href="#5" y="4.342"/></svg><svg x="2295"><use xlink:href="#a"/><use xlink:href="#b" x="-.004" y="8.659"/><use xlink:href="#1"/><use xlink:href="#4" y="2.171"/><use xlink:href="#5" y="4.342"/><use xlink:href="#6" y="6.513"/></svg><svg x="2380"><use xlink:href="#a"/><use xlink:href="#b" x="9.996" y="8.659"/><use xlink:href="#1"/><use xlink:href="#4" y="2.171"/><use xlink:href="#5" y="4.342"/><use xlink:href="#6" y="6.513"/><use xlink:href="#2" y="8.684"/></svg><svg x="2465"><use xlink:href="#a"/><use xlink:href="#b" x="19.996" y="8.659"/><use xlink:href="#1"/><use xlink:href="#4" y="2.171"/><use xlink:href="#5" y="4.342"/><use xlink:href="#6" y="6.513"/><text y="10.354" class="d">my-shell:&gt;my-shell:&gt;</text></svg></svg></g></g></svg></svg>