<svg xmlns="http://www.w3.org/2000/svg" xmlns:xlink="http://www.w3.org/1999/xlink" width="850" height="173.68"><rect width="850" height="173.68" rx="0" ry="0" class="a"/><svg height="173.68" viewBox="0 0 85 17.368" width="850" xmlns="http://www.w3.org/2000/svg" xmlns:xlink="http://www.w3.org/1999/xlink"><style>@keyframes l{0%{transform:translateX(0)}7.45%{transform:translateX(-85px)}12.99%{transform:translateX(-170px)}21.35%{transform:translateX(-255px)}24.06%{transform:translateX(-340px)}24.66%{transform:translateX(-425px)}25.6%{transform:translateX(-510px)}26.57%{transform:translateX(-595px)}26.93%{transform:translateX(-680px)}27.71%{transform:translateX(-765px)}28.28%{transform:translateX(-850px)}28.67%{transform:translateX(-935px)}29.39%{transform:translateX(-1020px)}33.01%{transform:translateX(-1105px)}34.71%{transform:translateX(-1190px)}35.44%{transform:translateX(-1275px)}35.89%{transform:translateX(-1360px)}36.77%{transform:translateX(-1445px)}40.72%{transform:translateX(-1530px)}40.95%{transform:translateX(-1615px)}41.22%{transform:translateX(-1700px)}64.47%{transform:translateX(-1785px)}64.51%{transform:translateX(-1955px)}64.52%{transform:translateX(-2040px)}74.7%{transform:translateX(-2125px)}78.39%{transform:translateX(-2295px)}78.42%{transform:translateX(-2380px)}78.45%{transform:translateX(-2465px)}90.59%{transform:translateX(-2550px)}90.62%{transform:translateX(-2635px)}90.63%{transform:translateX(-2720px)}90.64%{transform:translateX(-2805px)}to{transform:translateX(-2890px)}}.a{fill:#282d35}.c,.d,.e{fill:#b9c0cb;white-space:pre}.d,.e{fill:#dbab79}.e{fill:#e88388}.f,.g{font-weight:700}.f{fill:#b9c0cb;white-space:pre}.g{fill:#a8cc8c}.g,.h,.i{white-space:pre}.h{fill:#fff;font-weight:700}.i{fill:#71bef2}</style><g font-family="Monaco,Consolas,Menlo,'Bitstream Vera Sans Mono','Powerline Symbols',monospace" font-size="1.67"><defs><symbol id="1"><text y="1.67" class="c">java</text><text x="5.01" y="1.67" class="c">-jar</text><text x="10.02" y="1.67" class="c">spring-shell-samples/target/spring-shell-samples-2.1.0-SNAPSHOT.jar</text></symbol><symbol id="2"><text y="1.67" class="d">my-shell:&gt;</text></symbol><symbol id="3"><text y="1.67" class="d">my-shell:&gt;</text><text x="10.02" y="1.67" class="e">component</text></symbol><symbol id="4"><text y="1.67" class="d">my-shell:&gt;</text><text x="10.02" y="1.67" class="f">component</text><text x="20.04" y="1.67" class="f">confirmation</text></symbol><symbol id="5"><text y="1.67" class="g">?</text><text x="2.004" y="1.67" class="h">Enter</text><text x="8.016" y="1.67" class="h">value</text><text x="14.028" y="1.67" class="c">(Y/n)</text></symbol><symbol id="6"><text y="1.67" class="g">?</text><text x="2.004" y="1.67" class="h">Enter</text><text x="8.016" y="1.67" class="h">value</text><text x="14.028" y="1.67" class="i">true</text></symbol><symbol id="7"><text y="1.67" class="c">Got</text><text x="4.008" y="1.67" class="c">value</text><text x="10.02" y="1.67" class="c">true</text></symbol><symbol id="8"><text y="1.67" class="g">?</text><text x="2.004" y="1.67" class="h">Enter</text><text x="8.016" y="1.67" class="h">value</text><text x="14.028" y="1.67" class="i">false</text></symbol><symbol id="9"><text y="1.67" class="c">Got</text><text x="4.008" y="1.67" class="c">value</text><text x="10.02" y="1.67" class="c">false</text></symbol><symbol id="a"><path fill="transparent" d="M0 0h85v8H0z"/></symbol><symbol id="b"><path fill="#6f7683" d="M0 0h1.102v2.171H0z"/></symbol></defs><path class="a" d="M0 0h85v17.368H0z"/><g style="animation-duration:21.3586s;animation-iteration-count:infinite;animation-name:l;animation-timing-function:steps(1,end)"><svg width="2975"><svg><use xlink:href="#a"/><use xlink:href="#b" x="-.004"/></svg><svg x="85"><use xlink:href="#a"/><use xlink:href="#b" x="76.996"/><use xlink:href="#1"/></svg><svg x="170"><use xlink:href="#a"/><use xlink:href="#b" x="-.004" y="2.146"/><use xlink:href="#1"/></svg><svg x="255"><use xlink:href="#a"/><use xlink:href="#b" x="9.996" y="2.146"/><use xlink:href="#1"/><use xlink:href="#2" y="2.171"/></svg><svg x="340"><use xlink:href="#a"/><use xlink:href="#b" x="10.996" y="2.146"/><use xlink:href="#1"/><text y="3.841" class="d">my-shell:&gt;</text><text x="10.02" y="3.841" class="e">c</text></svg><svg x="425"><use xlink:href="#a"/><use xlink:href="#b" x="11.996" y="2.146"/><use xlink:href="#1"/><text y="3.841" class="d">my-shell:&gt;</text><text x="10.02" y="3.841" class="e">co</text></svg><svg x="510"><use xlink:href="#a"/><use xlink:href="#b" x="12.996" y="2.146"/><use xlink:href="#1"/><text y="3.841" class="d">my-shell:&gt;</text><text x="10.02" y="3.841" class="e">com</text></svg><svg x="595"><use xlink:href="#a"/><use xlink:href="#b" x="13.996" y="2.146"/><use xlink:href="#1"/><text y="3.841" class="d">my-shell:&gt;</text><text x="10.02" y="3.841" class="e">comp</text></svg><svg x="680"><use xlink:href="#a"/><use xlink:href="#b" x="14.996" y="2.146"/><use xlink:href="#1"/><text y="3.841" class="d">my-shell:&gt;</text><text x="10.02" y="3.841" class="e">compo</text></svg><svg x="765"><use xlink:href="#a"/><use xlink:href="#b" x="15.996" y="2.146"/><use xlink:href="#1"/><text y="3.841" class="d">my-shell:&gt;</text><text x="10.02" y="3.841" class="e">compon</text></svg><svg x="850"><use xlink:href="#a"/><use xlink:href="#b" x="16.996" y="2.146"/><use xlink:href="#1"/><text y="3.841" class="d">my-shell:&gt;</text><text x="10.02" y="3.841" class="e">compone</text></svg><svg x="935"><use xlink:href="#a"/><use xlink:href="#b" x="17.996" y="2.146"/><use xlink:href="#1"/><text y="3.841" class="d">my-shell:&gt;</text><text x="10.02" y="3.841" class="e">componen</text></svg><svg x="1020"><use xlink:href="#a"/><use xlink:href="#b" x="18.996" y="2.146"/><use xlink:href="#1"/><use xlink:href="#3" y="2.171"/></svg><svg x="1105"><use xlink:href="#a"/><use xlink:href="#b" x="19.996" y="2.146"/><use xlink:href="#1"/><use xlink:href="#3" y="2.171"/></svg><svg x="1190"><use xlink:href="#a"/><use xlink:href="#b" x="20.996" y="2.146"/><use xlink:href="#1"/><text y="3.841" class="d">my-shell:&gt;</text><text x="10.02" y="3.841" class="e">component</text><text x="20.04" y="3.841" class="e">c</text></svg><svg x="1275"><use xlink:href="#a"/><use xlink:href="#b" x="21.996" y="2.146"/><use xlink:href="#1"/><text y="3.841" class="d">my-shell:&gt;</text><text x="10.02" y="3.841" class="e">component</text><text x="20.04" y="3.841" class="e">co</text></svg><svg x="1360"><use xlink:href="#a"/><use xlink:href="#b" x="22.996" y="2.146"/><use xlink:href="#1"/><text y="3.841" class="d">my-shell:&gt;</text><text x="10.02" y="3.841" class="e">component</text><text x="20.04" y="3.841" class="e">con</text></svg><svg x="1445"><use xlink:href="#a"/><use xlink:href="#b" x="32.996" y="2.146"/><use xlink:href="#1"/><use xlink:href="#4" y="2.171"/></svg><svg x="1530"><use xlink:href="#a"/><use xlink:href="#b" x="-.004" y="4.317"/><use xlink:href="#1"/><use xlink:href="#4" y="2.171"/></svg><svg x="1615"><use xlink:href="#a"/><use xlink:href="#1"/><use xlink:href="#4" y="2.171"/></svg><svg x="1700"><use xlink:href="#a"/><use xlink:href="#1"/><use xlink:href="#4" y="2.171"/><use xlink:href="#5" y="4.342"/></svg><svg x="1785"><use xlink:href="#a"/><use xlink:href="#b" x="-.004" y="4.317"/><use xlink:href="#1"/><use xlink:href="#4" y="2.171"/></svg><svg x="1870"><use xlink:href="#a"/><use xlink:href="#b" x="-.004" y="6.488"/><use xlink:href="#1"/><use xlink:href="#4" y="2.171"/><use xlink:href="#6" y="4.342"/></svg><svg x="1955"><use xlink:href="#a"/><use xlink:href="#b" x="-.004" y="8.659"/><use xlink:href="#1"/><use xlink:href="#4" y="2.171"/><use xlink:href="#6" y="4.342"/><use xlink:href="#7" y="6.513"/></svg><svg x="2040"><use xlink:href="#a"/><use xlink:href="#b" x="9.996" y="8.659"/><use xlink:href="#1"/><use xlink:href="#4" y="2.171"/><use xlink:href="#6" y="4.342"/><use xlink:href="#7" y="6.513"/><use xlink:href="#2" y="8.684"/></svg><svg x="2125"><use xlink:href="#a"/><use xlink:href="#b" x="31.996" y="8.659"/><use xlink:href="#1"/><use xlink:href="#4" y="2.171"/><use xlink:href="#6" y="4.342"/><use xlink:href="#7" y="6.513"/><use xlink:href="#4" y="8.684"/></svg><svg x="2210"><use xlink:href="#a"/><use xlink:href="#b" x="-.004" y="10.83"/><use xlink:href="#1"/><use xlink:href="#4" y="2.171"/><use xlink:href="#6" y="4.342"/><use xlink:href="#7" y="6.513"/><use xlink:href="#4" y="8.684"/></svg><svg x="2295"><use xlink:href="#a"/><use xlink:href="#b" x="-.004" y="10.83"/><use xlink:href="#1"/><use xlink:href="#4" y="2.171"/><use xlink:href="#6" y="4.342"/><use xlink:href="#7" y="6.513"/><use xlink:href="#4" y="8.684"/></svg><svg x="2380"><use xlink:href="#a"/><use xlink:href="#1"/><use xlink:href="#4" y="2.171"/><use xlink:href="#6" y="4.342"/><use xlink:href="#7" y="6.513"/><use xlink:href="#4" y="8.684"/></svg><svg x="2465"><use xlink:href="#a"/><use xlink:href="#1"/><use xlink:href="#4" y="2.171"/><use xlink:href="#6" y="4.342"/><use xlink:href="#7" y="6.513"/><use xlink:href="#4" y="8.684"/><use xlink:href="#5" y="10.855"/></svg><svg x="2550"><use xlink:href="#a"/><use xlink:href="#b" x="-.004" y="10.83"/><use xlink:href="#1"/><use xlink:href="#4" y="2.171"/><use xlink:href="#6" y="4.342"/><use xlink:href="#7" y="6.513"/><use xlink:href="#4" y="8.684"/></svg><svg x="2635"><use xlink:href="#a"/><use xlink:href="#b" x="-.004" y="13.001"/><use xlink:href="#1"/><use xlink:href="#4" y="2.171"/><use xlink:href="#6" y="4.342"/><use xlink:href="#7" y="6.513"/><use xlink:href="#4" y="8.684"/><use xlink:href="#8" y="10.855"/></svg><svg x="2720"><use xlink:href="#a"/><use xlink:href="#b" x="-.004" y="15.172"/><use xlink:href="#1"/><use xlink:href="#4" y="2.171"/><use xlink:href="#6" y="4.342"/><use xlink:href="#7" y="6.513"/><use xlink:href="#4" y="8.684"/><use xlink:href="#8" y="10.855"/><use xlink:href="#9" y="13.026"/></svg><svg x="2805"><use xlink:href="#a"/><use xlink:href="#b" x="9.996" y="15.172"/><use xlink:href="#1"/><use xlink:href="#4" y="2.171"/><use xlink:href="#6" y="4.342"/><use xlink:href="#7" y="6.513"/><use xlink:href="#4" y="8.684"/><use xlink:href="#8" y="10.855"/><use xlink:href="#9" y="13.026"/><use xlink:href="#2" y="15.197"/></svg><svg x="2890"><use xlink:href="#a"/><use xlink:href="#b" x="19.996" y="15.172"/><use xlink:href="#1"/><use xlink:href="#4" y="2.171"/><use xlink:href="#6" y="4.342"/><use xlink:href="#7" y="6.513"/><use xlink:href="#4" y="8.684"/><use xlink:href="#8" y="10.855"/><use xlink:href="#9" y="13.026"/><text y="16.867" class="d">my-shell:&gt;my-shell:&gt;</text></svg></svg></g></g></svg></svg>