<svg xmlns="http://www.w3.org/2000/svg" xmlns:xlink="http://www.w3.org/1999/xlink" width="850" height="238.81"><rect width="850" height="238.81" rx="0" ry="0" class="a"/><svg height="238.81" viewBox="0 0 85 23.881" width="850" xmlns="http://www.w3.org/2000/svg" xmlns:xlink="http://www.w3.org/1999/xlink"><style>@keyframes n{0%{transform:translateX(0)}8.01%{transform:translateX(-85px)}25.32%{transform:translateX(-170px)}35.78%{transform:translateX(-255px)}38.27%{transform:translateX(-340px)}39.02%{transform:translateX(-425px)}40.21%{transform:translateX(-510px)}42.3%{transform:translateX(-595px)}44.1%{transform:translateX(-680px)}45.11%{transform:translateX(-765px)}45.47%{transform:translateX(-850px)}47.07%{transform:translateX(-935px)}47.9%{transform:translateX(-1020px)}50.51%{transform:translateX(-1105px)}50.91%{transform:translateX(-1190px)}51.21%{transform:translateX(-1275px)}59.51%{transform:translateX(-1360px)}59.57%{transform:translateX(-1445px)}59.58%{transform:translateX(-1530px)}59.61%{transform:translateX(-1615px)}64.09%{transform:translateX(-1700px)}64.12%{transform:translateX(-1785px)}64.13%{transform:translateX(-1870px)}68.18%{transform:translateX(-1955px)}70.92%{transform:translateX(-2040px)}72.57%{transform:translateX(-2125px)}72.6%{transform:translateX(-2210px)}72.63%{transform:translateX(-2295px)}75.47%{transform:translateX(-2380px)}77.55%{transform:translateX(-2465px)}77.59%{transform:translateX(-2635px)}77.62%{transform:translateX(-2720px)}80.53%{transform:translateX(-2805px)}80.56%{transform:translateX(-2890px)}80.57%{transform:translateX(-2975px)}99.97%{transform:translateX(-3060px)}99.98%{transform:translateX(-3145px)}99.99%{transform:translateX(-3230px)}to{transform:translateX(-3315px)}}.a{fill:#282d35}.c,.d,.e,.f{fill:#b9c0cb;white-space:pre}.d,.e,.f{fill:#dbab79}.e,.f{fill:#e88388}.f{fill:#b9c0cb}.f,.g,.h{font-weight:700}.g{fill:#a8cc8c;white-space:pre}.h{fill:#fff}.h,.i,.j{white-space:pre}.i{fill:#66c2cd;font-weight:700}.j{fill:#71bef2}</style><g font-family="Monaco,Consolas,Menlo,'Bitstream Vera Sans Mono','Powerline Symbols',monospace" font-size="1.67"><defs><symbol id="1"><text y="1.67" class="c">java</text><text x="5.01" y="1.67" class="c">-jar</text><text x="10.02" y="1.67" class="c">spring-shell-samples/target/spring-shell-samples-2.1.0-SNAPSHOT.jar</text></symbol><symbol id="2"><text y="1.67" class="d">my-shell:&gt;</text></symbol><symbol id="3"><text y="1.67" class="d">my-shell:&gt;</text><text x="10.02" y="1.67" class="e">flow</text></symbol><symbol id="4"><text y="1.67" class="d">my-shell:&gt;</text><text x="10.02" y="1.67" class="f">flow</text><text x="15.03" y="1.67" class="f">conditional</text></symbol><symbol id="5"><text y="1.67" class="g">?</text><text x="2.004" y="1.67" class="h">Single1</text><text x="10.02" y="1.67" class="c">[Use</text><text x="15.03" y="1.67" class="c">arrows</text><text x="22.044" y="1.67" class="c">to</text><text x="25.05" y="1.67" class="c">move],</text><text x="32.064" y="1.67" class="c">type</text><text x="37.074" y="1.67" class="c">to</text><text x="40.08" y="1.67" class="c">filter</text></symbol><symbol id="6"><text y="1.67" class="i">&gt;</text><text x="2.004" y="1.67" class="i">Field1</text></symbol><symbol id="7"><text x="2.004" y="1.67" class="c">Field2</text></symbol><symbol id="8"><text y="1.67" class="g">?</text><text x="2.004" y="1.67" class="h">Single1</text><text x="10.02" y="1.67" class="j">field1</text></symbol><symbol id="9"><text y="1.67" class="g">?</text><text x="2.004" y="1.67" class="h">Field1</text><text x="9.018" y="1.67" class="j">defaultField1Value</text></symbol><symbol id="10"><text y="1.67" class="g">?</text><text x="2.004" y="1.67" class="h">Single1</text><text x="10.02" y="1.67" class="j">field2</text></symbol><symbol id="11"><text y="1.67" class="g">?</text><text x="2.004" y="1.67" class="h">Field2</text><text x="9.018" y="1.67" class="j">defaultField2Value</text></symbol><symbol id="12"><text y="1.67" class="e">org.jline.reader.EndOfFileException</text></symbol><symbol id="13"><text y="1.67" class="e">Details</text><text x="8.016" y="1.67" class="e">of</text><text x="11.022" y="1.67" class="e">the</text><text x="15.03" y="1.67" class="e">error</text><text x="21.042" y="1.67" class="e">have</text><text x="26.052" y="1.67" class="e">been</text><text x="31.062" y="1.67" class="e">omitted.</text><text x="40.08" y="1.67" class="e">You</text><text x="44.088" y="1.67" class="e">can</text><text x="48.096" y="1.67" class="e">use</text><text x="52.104" y="1.67" class="e">the</text><text x="56.112" y="1.67" style="white-space:pre" fill="#e88388" font-weight="700">stacktrace</text><text x="67.134" y="1.67" class="e">command</text><text x="75.15" y="1.67" class="e">to</text><text x="78.156" y="1.67" class="e">print</text><text x="84.168" y="1.67" class="e">t</text></symbol><symbol id="14"><text y="1.67" class="e">he</text><text x="3.006" y="1.67" class="e">full</text><text x="8.016" y="1.67" class="e">stacktrace.</text></symbol><symbol id="a"><path fill="transparent" d="M0 0h85v11H0z"/></symbol><symbol id="b"><path fill="#6f7683" d="M0 0h1.102v2.171H0z"/></symbol></defs><path class="a" d="M0 0h85v23.881H0z"/><g style="animation-duration:19.870354s;animation-iteration-count:infinite;animation-name:n;animation-timing-function:steps(1,end)"><svg width="3400"><svg><use xlink:href="#a"/><use xlink:href="#b" x="-.004"/></svg><svg x="85"><use xlink:href="#a"/><use xlink:href="#b" x="76.996"/><use xlink:href="#1"/></svg><svg x="170"><use xlink:href="#a"/><use xlink:href="#b" x="-.004" y="2.146"/><use xlink:href="#1"/></svg><svg x="255"><use xlink:href="#a"/><use xlink:href="#b" x="9.996" y="2.146"/><use xlink:href="#1"/><use xlink:href="#2" y="2.171"/></svg><svg x="340"><use xlink:href="#a"/><use xlink:href="#b" x="10.996" y="2.146"/><use xlink:href="#1"/><text y="3.841" class="d">my-shell:&gt;</text><text x="10.02" y="3.841" class="e">f</text></svg><svg x="425"><use xlink:href="#a"/><use xlink:href="#b" x="11.996" y="2.146"/><use xlink:href="#1"/><text y="3.841" class="d">my-shell:&gt;</text><text x="10.02" y="3.841" class="e">fl</text></svg><svg x="510"><use xlink:href="#a"/><use xlink:href="#b" x="12.996" y="2.146"/><use xlink:href="#1"/><text y="3.841" class="d">my-shell:&gt;</text><text x="10.02" y="3.841" class="e">flo</text></svg><svg x="595"><use xlink:href="#a"/><use xlink:href="#b" x="13.996" y="2.146"/><use xlink:href="#1"/><use xlink:href="#3" y="2.171"/></svg><svg x="680"><use xlink:href="#a"/><use xlink:href="#b" x="14.996" y="2.146"/><use xlink:href="#1"/><use xlink:href="#3" y="2.171"/></svg><svg x="765"><use xlink:href="#a"/><use xlink:href="#b" x="15.996" y="2.146"/><use xlink:href="#1"/><text y="3.841" class="d">my-shell:&gt;</text><text x="10.02" y="3.841" class="e">flow</text><text x="15.03" y="3.841" class="e">c</text></svg><svg x="850"><use xlink:href="#a"/><use xlink:href="#b" x="16.996" y="2.146"/><use xlink:href="#1"/><text y="3.841" class="d">my-shell:&gt;</text><text x="10.02" y="3.841" class="e">flow</text><text x="15.03" y="3.841" class="e">co</text></svg><svg x="935"><use xlink:href="#a"/><use xlink:href="#b" x="17.996" y="2.146"/><use xlink:href="#1"/><text y="3.841" class="d">my-shell:&gt;</text><text x="10.02" y="3.841" class="e">flow</text><text x="15.03" y="3.841" class="e">con</text></svg><svg x="1020"><use xlink:href="#a"/><use xlink:href="#b" x="26.996" y="2.146"/><use xlink:href="#1"/><use xlink:href="#4" y="2.171"/></svg><svg x="1105"><use xlink:href="#a"/><use xlink:href="#b" x="-.004" y="4.317"/><use xlink:href="#1"/><use xlink:href="#4" y="2.171"/></svg><svg x="1190"><use xlink:href="#a"/><use xlink:href="#1"/><use xlink:href="#4" y="2.171"/></svg><svg x="1275"><use xlink:href="#a"/><use xlink:href="#1"/><use xlink:href="#4" y="2.171"/><use xlink:href="#5" y="4.342"/><use xlink:href="#6" y="6.513"/><use xlink:href="#7" y="8.684"/></svg><svg x="1360"><use xlink:href="#a"/><use xlink:href="#b" x="-.004" y="4.317"/><use xlink:href="#1"/><use xlink:href="#4" y="2.171"/></svg><svg x="1445"><use xlink:href="#a"/><use xlink:href="#b" x="-.004" y="6.488"/><use xlink:href="#1"/><use xlink:href="#4" y="2.171"/><use xlink:href="#8" y="4.342"/></svg><svg x="1530"><use xlink:href="#a"/><use xlink:href="#1"/><use xlink:href="#4" y="2.171"/><use xlink:href="#8" y="4.342"/></svg><svg x="1615"><use xlink:href="#a"/><use xlink:href="#1"/><use xlink:href="#4" y="2.171"/><use xlink:href="#8" y="4.342"/><text y="8.183" class="g">?</text><text x="2.004" y="8.183" class="h">Field1</text><text x="9.018" y="8.183" class="j">[Default</text><text x="18.036" y="8.183" class="j">defaultField1Value]</text></svg><svg x="1700"><use xlink:href="#a"/><use xlink:href="#b" x="-.004" y="6.488"/><use xlink:href="#1"/><use xlink:href="#4" y="2.171"/><use xlink:href="#8" y="4.342"/></svg><svg x="1785"><use xlink:href="#a"/><use xlink:href="#b" x="-.004" y="8.659"/><use xlink:href="#1"/><use xlink:href="#4" y="2.171"/><use xlink:href="#8" y="4.342"/><use xlink:href="#9" y="6.513"/></svg><svg x="1870"><use xlink:href="#a"/><use xlink:href="#1"/><use xlink:href="#4" y="2.171"/><use xlink:href="#8" y="4.342"/><use xlink:href="#9" y="6.513"/></svg><svg x="1955"><use xlink:href="#a"/><use xlink:href="#1"/><use xlink:href="#4" y="2.171"/><use xlink:href="#8" y="4.342"/><use xlink:href="#9" y="6.513"/><use xlink:href="#2" y="8.684"/></svg><svg x="2040"><use xlink:href="#a"/><use xlink:href="#1"/><use xlink:href="#4" y="2.171"/><use xlink:href="#8" y="4.342"/><use xlink:href="#9" y="6.513"/><use xlink:href="#4" y="8.684"/></svg><svg x="2125"><use xlink:href="#a"/><use xlink:href="#1"/><use xlink:href="#4" y="2.171"/><use xlink:href="#8" y="4.342"/><use xlink:href="#9" y="6.513"/><use xlink:href="#4" y="8.684"/></svg><svg x="2210"><use xlink:href="#a"/><use xlink:href="#1"/><use xlink:href="#4" y="2.171"/><use xlink:href="#8" y="4.342"/><use xlink:href="#9" y="6.513"/><use xlink:href="#4" y="8.684"/></svg><svg x="2295"><use xlink:href="#a"/><use xlink:href="#1"/><use xlink:href="#4" y="2.171"/><use xlink:href="#8" y="4.342"/><use xlink:href="#9" y="6.513"/><use xlink:href="#4" y="8.684"/><use xlink:href="#5" y="10.855"/><use xlink:href="#6" y="13.026"/><use xlink:href="#7" y="15.197"/></svg><svg x="2380"><use xlink:href="#a"/><use xlink:href="#1"/><use xlink:href="#4" y="2.171"/><use xlink:href="#8" y="4.342"/><use xlink:href="#9" y="6.513"/><use xlink:href="#4" y="8.684"/><use xlink:href="#5" y="10.855"/><text x="2.004" y="14.696" class="c">Field1</text><text y="16.867" class="i">&gt;</text><text x="2.004" y="16.867" class="i">Field2</text></svg><svg x="2465"><use xlink:href="#a"/><use xlink:href="#b" x="-.004" y="10.83"/><use xlink:href="#1"/><use xlink:href="#4" y="2.171"/><use xlink:href="#8" y="4.342"/><use xlink:href="#9" y="6.513"/><use xlink:href="#4" y="8.684"/></svg><svg x="2550"><use xlink:href="#a"/><use xlink:href="#b" x="-.004" y="13.001"/><use xlink:href="#1"/><use xlink:href="#4" y="2.171"/><use xlink:href="#8" y="4.342"/><use xlink:href="#9" y="6.513"/><use xlink:href="#4" y="8.684"/><use xlink:href="#10" y="10.855"/></svg><svg x="2635"><use xlink:href="#a"/><use xlink:href="#1"/><use xlink:href="#4" y="2.171"/><use xlink:href="#8" y="4.342"/><use xlink:href="#9" y="6.513"/><use xlink:href="#4" y="8.684"/><use xlink:href="#10" y="10.855"/></svg><svg x="2720"><use xlink:href="#a"/><use xlink:href="#1"/><use xlink:href="#4" y="2.171"/><use xlink:href="#8" y="4.342"/><use xlink:href="#9" y="6.513"/><use xlink:href="#4" y="8.684"/><use xlink:href="#10" y="10.855"/><text y="14.696" class="g">?</text><text x="2.004" y="14.696" class="h">Field2</text><text x="9.018" y="14.696" class="j">[Default</text><text x="18.036" y="14.696" class="j">defaultField2Value]</text></svg><svg x="2805"><use xlink:href="#a"/><use xlink:href="#b" x="-.004" y="13.001"/><use xlink:href="#1"/><use xlink:href="#4" y="2.171"/><use xlink:href="#8" y="4.342"/><use xlink:href="#9" y="6.513"/><use xlink:href="#4" y="8.684"/><use xlink:href="#10" y="10.855"/></svg><svg x="2890"><use xlink:href="#a"/><use xlink:href="#b" x="-.004" y="15.172"/><use xlink:href="#1"/><use xlink:href="#4" y="2.171"/><use xlink:href="#8" y="4.342"/><use xlink:href="#9" y="6.513"/><use xlink:href="#4" y="8.684"/><use xlink:href="#10" y="10.855"/><use xlink:href="#11" y="13.026"/></svg><svg x="2975"><use xlink:href="#a"/><use xlink:href="#b" x="9.996" y="15.172"/><use xlink:href="#1"/><use xlink:href="#4" y="2.171"/><use xlink:href="#8" y="4.342"/><use xlink:href="#9" y="6.513"/><use xlink:href="#4" y="8.684"/><use xlink:href="#10" y="10.855"/><use xlink:href="#11" y="13.026"/><use xlink:href="#2" y="15.197"/></svg><svg x="3060"><use xlink:href="#a"/><use xlink:href="#b" x="-.004" y="17.343"/><use xlink:href="#1"/><use xlink:href="#4" y="2.171"/><use xlink:href="#8" y="4.342"/><use xlink:href="#9" y="6.513"/><use xlink:href="#4" y="8.684"/><use xlink:href="#10" y="10.855"/><use xlink:href="#11" y="13.026"/><use xlink:href="#2" y="15.197"/></svg><svg x="3145"><use xlink:href="#a"/><use xlink:href="#b" x="-.004" y="17.343"/><use xlink:href="#1"/><use xlink:href="#4" y="2.171"/><use xlink:href="#8" y="4.342"/><use xlink:href="#9" y="6.513"/><use xlink:href="#4" y="8.684"/><use xlink:href="#10" y="10.855"/><use xlink:href="#11" y="13.026"/><use xlink:href="#2" y="15.197"/></svg><svg x="3230"><use xlink:href="#a"/><use xlink:href="#b" x="-.004" y="21.685"/><use xlink:href="#4"/><use xlink:href="#8" y="2.171"/><use xlink:href="#9" y="4.342"/><use xlink:href="#4" y="6.513"/><use xlink:href="#10" y="8.684"/><use xlink:href="#11" y="10.855"/><use xlink:href="#2" y="13.026"/><use xlink:href="#12" y="15.197"/><use xlink:href="#13" y="17.368"/><use xlink:href="#14" y="19.539"/></svg><svg x="3315"><use xlink:href="#a"/><use xlink:href="#b" x="9.996" y="21.685"/><use xlink:href="#4"/><use xlink:href="#8" y="2.171"/><use xlink:href="#9" y="4.342"/><use xlink:href="#4" y="6.513"/><use xlink:href="#10" y="8.684"/><use xlink:href="#11" y="10.855"/><use xlink:href="#2" y="13.026"/><use xlink:href="#12" y="15.197"/><use xlink:href="#13" y="17.368"/><use xlink:href="#14" y="19.539"/><use xlink:href="#2" y="21.71"/></svg></svg></g></g></svg></svg>